<svg transform="scale(0.3)" width="4221" height="2434" xmlns="http://www.w3.org/2000/svg" xmlns:xlink="http://www.w3.org/1999/xlink" overflow="scroll"><defs><clipPath id="clip0"><rect x="151" y="45" width="4221" height="2434"/></clipPath><clipPath id="clip1"><rect x="939" y="280" width="2821" height="2116"/></clipPath><clipPath id="clip2"><rect x="939" y="280" width="2821" height="2116"/></clipPath><clipPath id="clip3"><rect x="939" y="280" width="2821" height="2116"/></clipPath></defs><g clip-path="url(#clip0)" transform="translate(-151 -45)"><path d="M1125.01 164.62C1083.66 170.006 1036.05 165.544 1000.97 180.779 992.698 184.37 985.294 189.003 976.16 191.553 965.714 194.469 954.177 195.333 943.083 196.939 908.406 201.959 888.029 203.814 852.12 207.712 838.338 211.303 824.856 215.428 810.774 218.486 799.992 220.827 788.188 221.025 777.697 223.872 713.606 241.268 716.059 244.526 661.927 266.966 614.487 286.631 619.066 279.393 579.234 310.059 562.451 322.978 519.031 360.233 504.81 380.085 492.255 397.609 471.733 433.951 471.733 433.951 453.61 492.976 476.271 431.455 446.925 482.431 406.608 552.463 480.03 446.031 422.117 530.911 404.496 556.737 403.96 552.201 380.77 579.391 374.784 586.41 369.745 593.755 364.232 600.937 361.475 609.915 360.407 619.184 355.963 627.87 322.073 694.1 352.835 613.794 331.155 665.577 307.721 721.548 326.9 692.667 298.077 730.216 295.321 739.194 292.323 748.142 289.809 757.15 286.371 769.467 278.841 803.097 273.27 816.402 248.532 875.486 263.961 824.836 248.462 870.269 245.413 879.206 242.707 888.194 240.192 897.202 237.193 907.948 238.151 919.381 231.924 929.522 226.805 937.858 213.809 943.221 207.116 951.068 199.907 959.521 196.09 969.023 190.577 978.001 185.064 995.957 175.908 1013.6 174.038 1031.87 163.744 1132.46 169.521 1085.79 157.5 1171.92 160.256 1276.06 160.696 1380.24 165.769 1484.34 166.216 1493.5 169.999 1502.51 174.038 1511.28 178.303 1520.54 185.064 1529.23 190.577 1538.21 193.333 1547.19 194.807 1556.38 198.846 1565.14 215.594 1601.51 212.375 1581.79 231.924 1613.62 238.398 1624.17 248.462 1645.94 248.462 1645.94 251.218 1728.54 249.426 1811.25 256.731 1893.73 257.735 1905.07 263.599 1916.6 273.27 1926.05 278.783 1931.44 285.364 1936.42 289.809 1942.21 296.447 1950.86 298.71 1960.85 306.347 1969.14 315.428 1979 329.043 1986.78 339.424 1996.08 351.115 2006.55 361.475 2017.62 372.501 2028.4L389.04 2044.56C399.438 2064.88 401.952 2074.51 430.386 2093.03 438.655 2098.42 447.584 2103.41 455.194 2109.2 480.99 2128.8 475.373 2131.21 504.81 2146.9 688.608 2244.86 498.108 2143.99 604.042 2189.99 626.977 2199.95 644.603 2215.65 670.196 2222.31 683.978 2225.91 698.445 2228.54 711.542 2233.09 739.906 2242.94 765.484 2256.04 794.235 2265.41 810.774 2270.79 827.57 2275.86 843.851 2281.57 863.418 2288.43 881.356 2297.34 901.736 2303.11 944.932 2315.35 989.359 2325.73 1034.04 2335.43 1085.42 2346.59 1138.83 2358.73 1191.16 2367.75 1257.08 2379.12 1323.58 2389.01 1389.62 2400.07 1420.06 2405.17 1449.91 2411.79 1480.59 2416.23 1520.1 2421.95 1581.43 2430.38 1621.16 2437.78 1637.93 2440.9 1653.96 2445.57 1670.78 2448.55 1682.71 2450.67 1752.96 2458.89 1761.74 2459.33 1816.78 2462.08 1872 2462.92 1927.13 2464.71 1965.95 2468.93 2023.05 2475.85 2059.44 2475.49 2211.12 2473.97 2362.64 2468.3 2514.25 2464.71 2541.81 2462.92 2569.55 2462 2596.94 2459.33 2624.2 2456.66 2724.84 2442.26 2754.06 2437.78 2776.18 2434.39 2798.52 2431.42 2820.21 2427.01 2936.16 2403.4 2835.65 2414.98 2952.52 2405.46 2969.06 2401.87 2985.44 2397.95 3002.14 2394.69 3040.58 2387.17 3082.01 2384.83 3117.91 2373.14 3134.44 2367.75 3150.63 2361.87 3167.52 2356.98 3200.27 2347.5 3234.7 2340.49 3266.75 2330.05 3330.76 2309.2 3374.05 2294.41 3448.68 2276.18 3492.78 2265.41 3538.86 2257.58 3580.99 2243.86 3603.04 2236.68 3625.74 2230.28 3647.14 2222.31 3664.4 2215.89 3679.26 2206.91 3696.76 2200.77 3715.24 2194.28 3735.87 2190.72 3754.64 2184.61 3797.8 2170.55 3832.46 2150.16 3870.41 2130.74 3890.59 2120.41 3919.36 2106.74 3936.57 2093.03 3965.39 2070.08 3989.75 2048.71 4010.99 2023.01 4022.68 2008.87 4030.39 1993.28 4044.07 1979.92 4067.44 1957.07 4056.16 1969.55 4077.14 1942.21 4090.04 1900.21 4076.5 1928.62 4110.22 1888.34 4151.23 1839.37 4120.48 1873.64 4151.57 1829.09 4159.22 1818.12 4167.52 1807.34 4176.38 1796.77 4184.07 1787.58 4194.53 1779.37 4201.18 1769.84 4208.4 1759.5 4211.6 1748.15 4217.72 1737.52 4228.15 1719.41 4243.6 1702.41 4250.8 1683.65 4262.67 1652.72 4254.85 1668.98 4275.61 1635.17 4281.4 1612.52 4292.48 1567.07 4300.42 1548.98 4305.93 1536.42 4312.44 1524.02 4316.95 1511.28 4322.19 1496.5 4326.42 1467.39 4333.49 1452.03 4337.76 1442.76 4344.52 1434.07 4350.03 1425.09 4385.88 1284.98 4363.86 1383.03 4350.03 1058.8 4349.26 1040.76 4345 1022.86 4341.76 1004.93 4334.85 966.672 4338.5 977.008 4325.22 951.068 4322.47 927.726 4322.04 904.218 4316.95 881.042 4312.82 862.186 4298.35 836.604 4292.15 816.402 4286.63 798.447 4282.43 780.3 4275.61 762.536 4264.52 733.656 4256.2 709.936 4242.53 681.736 4232.03 660.079 4221.7 638.363 4209.45 617.097 4178.52 563.371 4192.09 588.558 4168.11 541.684 4165.35 530.911 4164.25 519.901 4159.84 509.364 4155.93 500.035 4148.51 491.484 4143.3 482.431 4140.24 477.115 4137.32 471.749 4135.03 466.271 4129.05 451.986 4125.68 437.224 4118.49 423.178 4115.73 417.791 4112.62 412.478 4110.22 407.018 4107.1 399.9 4106.57 392.237 4101.95 385.471 4095.42 375.904 4084.95 367.691 4077.14 358.538 4051.69 328.688 4060.38 326.072 4010.99 293.899 3991.7 281.33 3978.44 262.793 3953.1 256.192 3945.06 254.096 3901.53 242.143 3886.95 240.032 3870.58 237.663 3853.78 236.788 3837.33 234.646 3826.19 233.194 3815.35 230.865 3804.26 229.259 3790.54 227.273 3776.63 225.859 3762.91 223.872 3751.82 222.266 3740.76 220.52 3729.83 218.486 3686.45 210.411 3723.64 214.928 3671.95 207.712 3644.46 203.876 3616.98 199.95 3589.26 196.939 3525.78 190.047 3556.08 193.695 3498.29 186.166 3487.27 182.575 3476.76 178.212 3465.22 175.393 3448.24 171.244 3406.51 167.18 3390.79 164.62 3382.34 163.243 3374.44 160.61 3365.98 159.233 3352.35 157.012 3338.36 155.833 3324.64 153.846 3313.54 152.24 3302.77 149.677 3291.56 148.46 3269.64 146.08 3247.49 144.671 3225.41 143.073 3149.58 137.585 3146.96 138.851 3076.56 132.3 2899.71 115.842 3169.1 138.901 2969.06 121.527 2896.74 115.245 2827.57 110.688 2754.06 105.367 2710.28 102.198 2595.98 94.4359 2563.86 89.2065 2541.81 85.6153 2520 81.3374 2497.71 78.4335 2478.6 75.9436 2459.09 74.9775 2439.82 73.0468 2423.25 71.3859 2406.65 69.802 2390.21 67.6601 2369.18 64.921 2336.51 57.7049 2315.79 56.8868 2238.7 53.8435 2161.43 53.2956 2084.24 51.5001 2001.55 53.2956 1918.77 53.8118 1836.17 56.8868 1799.09 58.267 1781.66 67.1101 1745.2 73.0468L1712.13 78.4335C1703.86 82.0246 1696.4 86.5773 1687.32 89.2065 1669.04 94.497 1618.78 104.507 1596.36 105.367 1516.51 108.426 1436.48 108.958 1356.55 110.753 1281.94 122.904 1311.96 116.845 1265.59 126.913 1192.92 158.469 1235.75 147.171 1133.28 153.846L1083.66 164.62" stroke="#2F528F" stroke-width="4.58333" stroke-linecap="butt" stroke-linejoin="miter" stroke-miterlimit="8" stroke-opacity="1" fill="#D0CECE" fill-rule="evenodd" fill-opacity="1"/><g clip-path="url(#clip1)"><g clip-path="url(#clip2)"><g clip-path="url(#clip3)"><path d="M414.188 722.625C411.083 719.521 408.429 716.927 405.375 713.812 403.057 711.448 400.204 707.96 398.073 704.937 396.447 702.63 393.922 698.814 391.274 694.866 389.499 692.218 387.709 689.54 385.736 686.934 382.687 682.909 380.315 680.31 377.851 677.54 375.203 674.565 372.339 671.304 369.391 667.547 367.802 665.522 364.598 661.108 362.963 658.793 361.305 656.445 359.667 654.06 356.395 649.334 353.24 644.777 351.725 642.614 348.806 638.549 347.423 636.623 344.771 632.992 343.519 631.266 340.007 626.428 337.883 623.428 335.915 620.559 334.03 617.811 330.481 612.461 328.7 609.825 326.909 607.173 325.078 604.495 323.043 601.894 319.885 597.859 317.437 595.284 315.047 592.549 312.613 589.764 309.103 585.342 307.045 582.13 304.953 578.867 304.056 577.112 302.037 573.674 298.929 568.383 296.614 564.874 295.427 563.099 293.021 559.499 291.713 557.73 289.42 553.93 285.918 548.127 284.979 546.024 283.04 541.857 282.071 539.775 280.264 535.589 279.362 533.526 276.732 527.513 274.943 523.688 274.022 521.812 272.174 518.05 270.192 514.267 268.047 510.391 265.799 506.329 264.568 504.283 262.264 500.018 261.102 497.869 259.811 495.771 257.031 489.094 256.125 486.918 254.696 482.513 253.451 478.17 252.84 476.038 251.767 471.815 250.422 467.797 249.109 463.876 247.493 460.115 245.822 456.376 244.978 454.488 242.319 448.714 240.587 444.661 239.707 442.601 238.014 438.428 237.215 436.33 235.639 432.194 233.614 426.182 233.02 424.251 231.858 420.475 230.808 416.71 229.636 412.936 228.424 409.036 227.002 405.001 225.488 400.857 224.724 398.764 223.169 394.598 222.445 392.526 220.353 386.541 219.178 382.715 218.293 378.938 217.416 375.199 217.023 373.296 216.441 367.387 216.037 363.292 215.915 359.109 215.795 357.018 215.555 352.869 214.969 346.861 214.352 343.058 214.051 341.199 213.306 337.577 212.751 334 211.933 328.722 211.735 325.201 211.5 321.748 211.271 318.383 210.576 312.047 209.946 309.13 209.041 304.943 208.104 302.309 207.47 296.987 207.009 293.124 207.104 290.624 207.094 285.026 207.089 282.184 206.307 277.517 207.47 274.075 208.794 270.155 210.575 265.943 213.795 264.467 217.319 262.852 221.44 262.412 224.213 261.22 228.233 259.494 232.151 259.972 236.551 259.969 240.232 259.966 242.804 259.969 248.071 259.969 251.99 259.969 255.751 259.969 260.315 259.969 263.382 259.969 267.389 259.918 271.789 259.975 275.299 260.02 278.831 259.738 282.838 261.543 286.143 263.031 289.341 265.598 292.343 267.459 296.393 269.972 299.055 272.399 302.501 274.509 305.513 276.354 309.582 278.835 311.957 281.119 315.151 284.19 317.679 287.829 319.453 290.813 321.642 294.493 324.282 297.214 325.528 301.041 326.468 303.929 326.976 308.383 329.167 311.754 331.29 315.022 333.141 318.164 334.875 321.656 336.619 325.167 338.221 328.665 339.049 333.093 339.66 336.362 341.002 340.304 342.812 343.552 344.729 346.993 345.853 350.403 347.212 353.898 348.928 358.311 350.298 361.22 352.5 365.719 353.803 368.382 355.591 372.084 356.372 376.388 357.008 379.898 356.82 383.616 357.882 388.096 358.612 391.176 360.462 394.782 362.194 398.331 363.982 401.996 365.743 406.1 367.041 409.573 367.939 411.978 369.169 415.611 371.006 419.986 372.701 424.022 374.569 428.126 375.853 431.624 376.761 434.098 378.064 437.985 379.378 441.948 380.708 445.957 381.637 448.699 383.344 454.578 384.261 457.736 385.115 461.064 386.146 464.466 387.206 467.962 389.148 473.24 389.888 475 391.396 478.582 393.096 482.197 394.806 485.945 396.575 489.823 398.328 493.86 399.186 495.915 400.896 500.01 402.489 504.028 403.236 505.973 405.308 511.365 406.355 514.612 408.13 518.804 409.205 521.341 411.864 525.77 414.187 528.658 416.414 531.426 419.208 534.856 421.19 538.444 423.107 541.912 424.762 545.494 426.525 549.019 428.287 552.544 430.05 556.069 431.812 559.594 433.575 563.119 435.337 566.644 437.1 570.169 438.862 573.694 440.625 577.219 442.387 580.744 443.709 583.387 445.912 587.794 447.675 591.319 449.437 594.844 451.2 598.369 452.522 601.012 454.725 605.419 456.035 608.068 458.25 612.469 460.003 615.951 461.463 619.383 463.998 622.351 466.298 625.045 470.002 626.903 472.999 628.772 477.015 631.276 477.975 635.643 481.016 638.172 483.899 640.57 488.724 638.506 490.809 634.97 492.329 632.393 493.011 627.264 493.268 624.283 493.55 621.01 493.619 617.454 494.234 611.734 494.671 607.677 495.06 605.609 495.703 601.361 496.359 597.028 496.773 594.85 497.371 588.234 497.57 586.034 497.776 581.626 497.859 577.219 497.901 575.016 497.906 568.406 497.906 566.202 497.906 561.777 497.906 559.547 497.906 555.029 497.906 550.405 497.906 545.641 497.906 543.197 497.906 538.212 497.906 535.688 497.906 530.624 497.906 528.101 497.914 525.595 497.905 518.269 497.903 515.901 497.877 511.236 497.814 508.922 497.689 504.283 497.638 501.933 496.93 494.727 496.686 492.239 495.994 487.171 495.611 484.596 495.225 481.995 494.378 476.75 493.5 471.469 493.061 468.826 492.18 463.557 491.737 460.941 491.298 458.342 490.42 453.214 489.975 450.695 489.103 445.764 488.215 440.995 487.772 438.654 486.895 434.015 486.441 431.703 485.569 427.036 484.678 422.267 483.804 417.337 483.366 414.817 482.922 412.267 482.043 407.091 481.603 404.474 481.161 401.844 479.844 393.918 479.394 391.275 478.944 388.63 477.999 383.341 477.479 380.7 476.958 378.054 475.156 370.121 474.46 367.482 473.763 364.839 473.002 362.218 471.56 356.998 470.849 354.423 469.985 351.913 468.531 344.422 468.067 342.031 467.529 337.313 467.38 334.987 467.083 330.361 467.082 328.034 467.062 320.922 467.056 318.477 467.062 313.473 467.062 310.923 467.062 308.346 467.062 303.13 467.062 300.5 467.062 295.219 467.062 289.931 467.062 287.288 467.062 284.644 467.062 279.356 467.062 276.713 467.062 274.069 467.062 266.138 467.062 263.5 467.062 260.87 467.062 255.654 467.062 253.077 467.062 248.007 467.062 243.078 467.062 238.319 467.062 236.006 467.062 231.512 467.062 229.331 467.062 225.101 467.062 219.085 467.062 215.277 467.062 213.421 467.062 209.785 467.062 206.218 467.062 200.925 467.062 197.4 467.062 193.875 467.062 190.35 467.045 185.063 467.068 181.543 467.092 178.059 467.145 172.957 467.797 168.172 468.207 165.159 469.304 161.021 469.915 158.456 471.003 153.889 471.123 149.834 472.203 145.406 473.07 141.851 473.634 138.294 475.875 134.574 477.711 131.527 480.096 128.418 483.429 127.781 486.435 127.207 490.856 127.781 494.381 127.781 498.789 127.781 502.496 127.778 505.708 127.781 510.99 127.787 514.048 127.773 517.229 128.099 520.467 128.43 526.65 130.196 529.426 131.577 532.116 132.915 536.84 135.839 539.974 137.704 542.973 139.488 547.146 142.427 549.389 144.39 551.814 146.513 554.206 148.856 556.58 151.211 560.995 155.591 563.109 157.474 565.491 160.62 568.579 164.7 569.504 167.245 571.162 171.01 572.307 173.61 574.932 178.901 576.449 181.538 577.975 184.189 580.95 189.442 582.13 192.113 583.287 194.731 584.704 198.717 586.472 204.01 587.36 206.671 588.276 209.376 589.556 213.639 590.923 218.191 591.77 221.443 592.641 224.811 593.533 228.261 594.848 233.53 595.725 237.062 596.61 240.627 597.503 244.261 598.369 248.007 599.266 251.887 600.135 255.932 601.012 260.081 601.455 262.172 602.312 266.351 603.656 272.453 604.089 274.416 604.992 278.216 605.768 281.908 606.522 285.499 607.379 290.808 607.692 294.332 608.002 297.812 608.069 301.239 608.433 304.537 609.116 310.73 610.001 313.552 610.915 317.671 611.796 321.643 612.268 325.619 612.377 328.266 612.54 332.229 612.469 337.519 612.469 340.163 612.469 344.128 612.469 349.416 612.469 352.06 612.469 356.025 612.469 361.313 612.469 363.956 612.469 367.922 612.469 371.888 612.469 375.854 612.469 379.866 612.469 384.036 612.469 388.485 612.469 391.651 612.469 394.959 612.469 398.372 612.469 401.856 612.469 407.137 612.469 410.643 612.469 414.096 612.484 419.099 612.468 423.787 612.458 426.714 612.422 430.896 612.093 433.569 611.438 438.894 610.199 442.813 609.616 445.472 608.465 450.732 608.177 454.724 608.109 457.369 607.974 462.655 608.106 466.605 607.971 469.174 607.777 472.861 606.728 477.242 605.53 481.274 604.305 485.398 603.834 488.922 603.703 492.824 603.609 495.643 603.715 500.204 603.609 505.068 603.538 508.371 603.465 511.664 602.681 516.317 601.952 520.645 600.896 523.208 599.984 528.016 599.213 532.084 599.388 534.901 599.244 539.319 599.109 543.485 597.313 547.279 596.095 550.27 594.46 554.285 594.973 557.84 594.824 562.257 594.697 566.02 593.896 570.27 592.97 573.805 592.019 577.435 590.848 581.958 590.596 584.992 590.292 588.66 590.868 593.125 590.186 596.354 589.197 601.034 586.299 604.07 586.031 608.063 585.795 611.58 586.031 615.805 586.031 619.771 586.031 623.064 586.031 627.444 586.031 630.817 586.031 635.57 586.031 639.347 586.031 643.313 586.031 647.343 586.031 650.823 586.031 654.769 586.031 659.017 585.005 663.006 586.051 666.646 587.024 670.029 589.695 672.528 590.529 676.36 591.341 680.089 593.879 683.57 595.214 686.494 596.875 690.134 601.031 692.695 602.922 696.188 604.511 699.122 607.441 701.599 608.433 704.501 609.86 708.681 611.336 711.876 614.231 715.417 616.67 718.399 619.634 720.94 621.723 724.041 623.688 726.959 626.36 730.78 629.324 733.089 632.307 735.412 635.029 737.97 637.255 741.179 639.66 744.643 641.758 747.342 644.241 749.944 647.659 753.527 650.442 756.046 652.848 758.915 654.461 760.84 657.056 765.289 658.734 768.891 659.857 771.298 662.261 775.918 664.621 778.914 667.034 781.976 669.759 785.04 672.414 788.51 674.255 790.917 676.003 793.493 679.297 796.797 682.6 800.111 685.236 801.863 687.584 803.932 692.26 808.056 694.214 810.545 696.188 813.045 698.204 815.6 701.307 819.581 703.608 822.212 705.971 824.916 708.501 827.582 710.799 830.514 714.296 834.975 716.239 838.304 717.273 839.943 719.36 843.251 721.43 846.664 725.457 851.195 726.831 852.741 729.93 855.597 732.977 858.608 734.515 860.128 738.895 865.02 741.266 868.778 742.469 870.683 744.568 874.731 745.602 876.779 747.672 880.882 749.732 884.961 752.082 888.806 753.248 890.712 755.739 894.395 758.336 897.974 759.631 899.76 763.603 905.044 764.925 906.807 767.569 910.332 770.213 913.857 771.534 915.619 775.5 920.907 776.851 922.648 779.446 926.214 782.048 929.789 783.354 931.589 785.699 935.383 788.068 939.216 790.123 943.293 791.111 945.353 793.069 949.438 794.845 953.48 795.763 955.41 798.348 960.845 800.171 964.036 801.846 967.08 803.463 970.02 805.678 974.49 806.855 977.683 808.065 980.965 809.041 984.423 810.239 987.888 812.077 993.201 813.61 996.711 815.248 1000.22 816.902 1003.76 817.809 1005.5 820.444 1010.79 822.209 1014.34 823.977 1017.93 824.85 1019.77 826.629 1023.5 829.265 1029.39 830.138 1031.44 831.919 1035.62 832.789 1037.76 834.544 1042.1 835.429 1044.29 838.066 1050.89 838.95 1053.09 840.707 1057.46 841.578 1059.62 843.356 1063.86 844.23 1065.94 846.879 1071.95 848.624 1075.75 850.313 1079.44 851.201 1081.22 852.674 1084.81 854.824 1090.06 855.912 1093.6 856.924 1097.06 857.906 1100.42 859.187 1105.24 860.1 1108.23 861.378 1112.41 862.187 1115 864.066 1119.53 865.727 1123.55 867.261 1126.18 869.333 1130.64 870.951 1134.13 872.087 1137.68 872.346 1141.22 872.667 1145.61 872.438 1149.15 872.438 1152.68 872.438 1157.1 872.438 1160.86 872.438 1165.11 872.438 1168.65 872.488 1172.27 872.437 1176.82 872.391 1180.88 872.245 1183.93 871.18 1188.3 870.294 1191.93 869.027 1195.54 867.15 1199.88 865.907 1202.76 863.797 1206.72 860.981 1209.91 858.484 1212.74 855.997 1215.59 852.61 1218.24 849.742 1220.48 845.266 1220.53 841.502 1220.53 837.188 1220.53 833.663 1220.53 830.138 1220.53 825.731 1220.53 822.206 1220.53 817.794 1220.53 815.065 1220.53 810.015 1220.58 806.513 1220.51 802.612 1220.43 799.776 1220.28 795.235 1219.56 792.017 1219.04 787.208 1217.91 784.178 1217 780.068 1215.77 776.658 1214.35 773.525 1213.04 769.245 1211.26 765.556 1210.05 761.821 1208.13 757.766 1206.04 755.181 1203.98 752.588 1201.71 749.89 1199.35 747.29 1196.74 743.334 1192.77 740.684 1190.12 738.037 1187.4 736.725 1186 734.06 1183.16 730.101 1178.59 727.472 1175.36 726.143 1173.72 723.533 1170.39 720.863 1167.15 718.245 1163.96 715.573 1160.99 713.025 1158.12 710.592 1155.38 708.169 1152.83 705.63 1148.71 703.291 1144.92 702.572 1142.1 699.859 1137.55 697.912 1134.28 696.023 1132.52 693.914 1129.39 691.043 1125.13 689.633 1121.31 688.717 1118.73 686.859 1113.48 686.084 1110.78 684.573 1106.69 683.51 1103.82 681.579 1099.25 680.073 1096.02 678.498 1092.65 676.783 1089.2 675.913 1087.46 673.283 1082.17 671.495 1078.65 669.842 1075.03 669.009 1073.21 667.324 1069.51 665.438 1063.57 664.145 1059.5 663.703 1057.39 662.589 1053.21 662.033 1051.12 660.28 1044.99 658.805 1041.14 657.375 1037.41 656.529 1035.65 655.001 1032.22 652.857 1027.39 651.025 1022.95 650.014 1020.14 648.563 1016.1 647.278 1012.12 645.956 1008.15 645.075 1005.51 643.313 1000.22 642.431 997.575 641.109 993.61 640.228 990.966 638.466 985.678 637.584 983.035 636.263 979.069 635.381 976.425 633.619 971.138 632.738 968.494 631.416 964.528 630.094 960.563 628.772 956.597 627.45 952.631 626.569 949.988 624.806 944.7 623.925 942.057 622.603 938.091 621.241 934.138 619.979 930.16 619.143 927.524 618.008 923.571 617.409 919.585 616.816 915.636 616.694 911.565 615.406 907.688 614.057 903.626 612.389 901.163 610.189 897.489 608.169 894.115 605.804 890.141 604.919 887.049 603.685 882.732 603.979 879.087 603.286 875.828 602.221 870.817 599.966 868.645 597.488 864.348 596.073 861.894 593.838 857.522 592.359 854.09 590.836 850.556 590.608 847.086 590.418 843.105 590.219 838.934 589.133 835.451 587.905 832.059 586.188 827.312 585.288 823.238 584.157 820.285 582.867 816.917 582.152 812.477 581.393 809.24 580.435 805.151 577.92 801.21 577.33 798.301 576.433 793.87 574.477 791.112 573.183 786.586 572.336 783.624 571.554 779.396 569.708 776.59 567.102 772.626 565.047 769.702 564.252 765.618 563.445 761.47 563.455 757.724 561.148 755.043 558.263 751.69 556.942 747.761 554.212 745.191 551.548 742.684 547.697 741.804 544.172 740.25 540.647 738.696 536.857 737.017 533.156 735.11 530.013 733.489 526.876 731.438 523.087 731.438 519.062 731.438 515.161 731.438 511.125 731.438 507.594 731.438 503.558 731.56 500.201 733.641 496.849 735.719 492.945 736.685 490.416 738.948 487.176 741.848 484.506 744.496 482.044 747.459 479.654 750.335 478.186 753.699 475.141 757.875 473.127 760.636 470.588 763.242 469.195 765.301 466.319 769.555 464.914 773.375 463.998 775.961 462.14 781.203 461.308 783.883 460.013 787.996 459.113 790.852 457.777 795.414 456.948 798.645 456.105 801.929 454.982 806.838 454.378 811.537 454.001 814.475 453.794 818.799 453.474 821.695 452.966 826.279 452.282 829.507 451.641 832.873 450.983 836.325 450.103 841.588 449.814 845.113 449.528 848.592 449.452 853.679 449.438 858.484 449.428 861.493 449.42 865.833 449.186 868.704 448.819 873.183 448.213 876.351 447.516 879.693 446.781 883.225 445.879 886.913 444.591 892.801 443.69 896.92 443.263 899.033 442.388 903.328 441.944 905.504 440.636 912.096 439.738 916.5 439.289 918.704 438.35 923.114 437.823 925.313 436.764 929.729 435.521 934.137 434.086 938.537 433.361 940.76 431.798 945.228 431.043 947.503 429.51 952.117 428.079 956.876 426.901 961.814 426.305 964.312 425.776 966.838 424.81 971.907 424.329 974.428 423.915 976.941 422.559 984.261 422.122 986.62 421.215 991.206 420.705 993.426 419.711 997.755 417.891 1003.9 417.177 1005.85 415.761 1009.72 414.095 1013.53 413.259 1015.47 411.537 1019.47 409.758 1023.71 408.013 1028.28 407.106 1030.66 405.293 1035.56 404.335 1038.05 403.371 1040.55 400.257 1047.96 399.112 1050.36 397.977 1052.73 395.574 1057.34 394.359 1059.61 393.154 1061.86 390.701 1066.28 388.484 1070.72 386.301 1075.09 385.328 1077.32 383.436 1081.73 382.495 1083.93 380.703 1088.34 378.938 1092.75 378.056 1094.95 376.308 1099.32 374.623 1103.58 373.806 1105.65 372.242 1109.61 370.219 1115.03 369.022 1118.24 368.005 1121.24 366.809 1123.99 364.463 1129.39 362.887 1131.99 361.221 1134.52 358.756 1138.26 356.04 1141.58 353.428 1144.59 351.003 1147.38 348.131 1150.88 345.983 1154.35 344.536 1156.68 342.242 1160.93 338.4 1162.88 334.667 1164.78 331.882 1167.02 328.082 1167.66 323.975 1168.34 320.569 1167.67 316.516 1167.66 313.013 1167.65 309.106 1167.57 306.293 1167.28 301.719 1166.8 296.808 1165.74 293.409 1164.81 291.666 1164.33 286.376 1162.59 282.893 1161.11 279.419 1159.64 276.091 1158.02 273.058 1156.19 268.887 1153.69 265.517 1150.97 262.652 1148.27 259.913 1145.68 257.262 1143.06 254.84 1140.34 251.783 1136.91 249.367 1133.39 248.344 1130.64 246.744 1126.35 246.8 1122.53 246.016 1118.45 245.335 1114.92 244.131 1111.07 243.595 1108.23 242.739 1103.7 242.523 1100.43 242.391 1095.35 242.3 1091.86 242.344 1086.58 242.344 1083.06 242.344 1079.53 242.344 1076.01 242.344 1070.72 242.344 1067.19 242.344 1063.67 242.344 1060.14 242.344 1056.62 242.344 1051.33 242.344 1047.81 242.344 1044.28 242.339 1040.76 242.344 1035.47 242.347 1031.94 242.338 1028.42 242.503 1024.89 242.667 1021.37 243.273 1016.07 243.918 1012.56 244.242 1010.79 245.017 1007.26 245.875 1003.74 247.165 998.451 248.039 994.936 249.045 991.498 250.035 988.118 251.808 983.288 253.289 980.326 255.444 976.015 257.217 973.425 259.235 969.375 261.181 965.468 262.075 962.723 263.864 958.8 265.694 954.788 267.22 952.159 269.71 948.225 271.397 945.56 274.081 941.623 275.831 938.952 277.606 936.245 280.28 932.011 282.882 927.422 283.783 925.832 285.525 922.53 287.446 919.256 289.379 915.961 292.603 911.252 295.03 908.38 297.448 905.52 300.08 902.855 301.394 901.525 305.335 897.536 308 894.932 310.549 892.266 313.056 889.644 316.549 885.683 318.643 883.013 320.696 880.394 322.528 877.628 326.797 872.438 329.015 869.742 331.463 867.151 332.672 865.828 335.086 863.187 339.654 857.918 341.673 855.273 343.622 852.721 345.318 850.128 348.975 845.655 350.667 843.585 353.211 840.907 356.812 837.282 359.011 835.069 362.201 831.895 364.649 829.445 367.847 826.244 370.532 824.329 373.063 820.297 375.013 817.191 376.04 813.774 378.938 810.75 381.525 808.051 384.682 805.038 386.869 802.819 389.977 799.666 392.76 796.201 394.268 793.125 396.024 789.543 396.696 785.6 398.437 782.55 400.485 778.963 403.133 776.337 405.264 773.579 407.815 770.276 409.081 765.96 409.67 763.051 410.567 758.62 412.244 755.785 414.628 752.054 416.429 749.234 418.652 745.37 420.797 742.362 423.08 739.16 422.659 734.853 423 731.068 423.369 726.982 426.354 724.662 427.315 720.422 428.191 716.553 427.407 712.511 427.407 708.672L427.407 704.748 427.407 700.826 427.407 696.922" fill="#000000" fill-rule="nonzero" fill-opacity="1" transform="matrix(1.00035 0 0 1 939 281)"/><path d="M1515.75 506.719C1515.75 502.221 1515.75 497.999 1515.75 494.338 1515.75 490.104 1515.75 486.707 1515.75 482.913 1515.75 478.959 1515.75 474.994 1515.75 471.028 1515.75 467.063 1515.75 463.077 1515.75 458.973 1515.75 456.112 1515.75 451.547 1515.75 446.729 1515.75 443.539 1515.75 440.49 1515.75 435.202 1515.75 431.904 1515.75 426.672 1515.75 423.189 1515.75 420.705 1515.75 416.825 1515.75 411.544 1515.75 408.9 1515.73 404.934 1515.75 399.648 1515.76 397.023 1515.57 393.141 1516.48 388.484 1517.32 384.264 1518.85 381.402 1519.62 377.08 1520.25 373.522 1520.24 369.642 1520.89 365.719 1521.56 361.724 1522.78 357.807 1523.31 355.144 1524.37 349.883 1524.39 347.16 1524.79 342.995 1525.23 338.54 1525.76 335.374 1526.48 332.12 1527.58 327.156 1528.96 322.388 1529.85 319.377 1530.72 316.431 1531.7 313.477 1533.38 306.969 1533.84 305.17 1534.71 301.346 1535.58 297.33 1536.47 293.23 1536.85 291.166 1538.22 285.18 1539.09 281.383 1539.97 277.742 1541.12 274.34 1542.77 269.461 1544.28 266.494 1545.82 263.652 1547.33 260.878 1550.31 255.585 1551.51 252.919 1553.28 248.985 1554.19 246.249 1556.14 242.344 1558.15 238.312 1559.87 235.765 1561.34 233.091 1564.23 227.861 1565.25 225.155 1566.97 221.352 1568.08 218.91 1570.66 214.43 1573.12 211.592 1575.58 208.769 1579.22 205.348 1580.96 203.522 1583.64 200.707 1587.13 196.425 1588.91 194.084 1590.75 191.672 1593.54 187.936 1596.92 184.717 1599.17 182.573 1601.7 180.781 1605.27 178.018 1608.65 175.4 1611.68 172.757 1614.43 170.081 1618.01 166.597 1619.8 164.87 1622.22 162.15 1625.28 158.718 1627.37 155.007 1629.22 152.708 1632.16 149.062 1635.6 147.377 1639.03 144.966 1641.98 142.896 1645.69 140.166 1648.71 138.356 1652.28 136.208 1655.2 133.719 1658.22 131.453 1661.17 129.239 1664.73 126.941 1667.34 125.508 1671.23 123.362 1675.24 121.732 1677.9 120.778 1683.16 118.891 1685.84 118.119 1689.7 116.766 1693.4 115.474 1697.75 113.591 1700.72 112.451 1705.17 110.744 1708.69 110.241 1711.89 110.162 1716.63 110.046 1720.25 110.156 1724.26 110.156 1728.02 110.156 1732.24 109.747 1735.55 110.532 1739.86 111.553 1742.94 113.429 1746.48 116.325 1749.46 118.764 1752.55 121.321 1753.53 125.138 1754.52 128.981 1753.69 133.075 1753.69 137.328 1753.69 141 1753.69 144.672 1753.69 148.723 1753.69 152.688 1753.69 155.749 1753.69 160.276 1753.69 164.448 1753.97 167.603 1752.95 171.844 1752.08 175.46 1750.16 178.895 1748.4 182.419 1746.64 185.945 1744.35 190.311 1743.16 192.994 1741.61 196.472 1740.8 200.958 1740.24 204.702 1739.6 208.968 1738.6 212.511 1737.78 214.913 1736.17 219.615 1734.78 222.725 1732.98 226.461 1731.26 230.026 1729.45 233.531 1727.25 237.938 1725.93 240.581 1724.17 244.106 1722.4 247.631 1720.64 251.156 1718.44 255.563 1717.12 258.206 1715.35 261.731 1713.59 265.256 1711.83 268.781 1710.51 271.425 1708.07 275.731 1706.79 279.356 1705.28 283.66 1705.63 287.306 1703.97 291.324 1702.73 294.309 1701.48 298.19 1700.44 301.899 1699.34 305.836 1696.38 309.154 1694.64 312.074 1692.85 315.099 1689.74 318.646 1688.33 322.391 1687.27 325.212 1687.53 328.809 1686.02 333.112 1684.74 336.738 1682.75 340.162 1680.98 343.688 1678.78 348.094 1677.46 350.737 1675.7 354.263 1673.93 357.787 1672.15 361.303 1669.97 365.719 1668.65 368.376 1666.88 372.084 1666.1 376.388 1665.46 379.898 1665.62 383.609 1664.59 388.096 1663.88 391.167 1662.19 394.75 1661.39 399.206 1660.76 402.705 1660.16 406.248 1658.95 409.781 1657.45 414.178 1656.83 417.663 1656.75 422.266 1656.69 425.755 1656.75 429.539 1656.75 433.343 1656.75 437.289 1656.75 441.506 1656.75 445.472 1656.75 449.438 1656.75 452.963 1656.75 456.928 1656.75 461.082 1656.74 464.951 1656.75 468.778 1656.76 473.023 1658.33 476.118 1661.43 478.407 1664.07 480.36 1667.84 480.281 1672.17 480.281 1676.52 480.281 1679.9 480.326 1683.92 479.547 1687.44 478.864 1691.21 477.532 1693.77 476.374 1699.15 473.938 1701.76 472.181 1704.5 470.382 1707.38 468.481 1711.93 465.222 1715.14 462.845 1716.79 461.625 1720.12 459.121 1723.35 456.482 1726.55 453.88 1729.55 451.222 1732.43 448.509 1735.32 445.781 1738.2 442.896 1741.2 439.891 1744.37 436.721 1746.02 435.08 1749.37 431.629 1751.1 429.852 1752.88 428.069 1758.09 422.266 1759.88 420.28 1761.64 418.235 1765.14 414.029 1766.92 411.901 1768.67 409.738 1770.43 407.558 1775.73 400.981 1777.48 398.768 1779.24 396.563 1780.99 394.362 1784.45 389.96 1786.14 387.75 1787.81 385.553 1792.62 378.946 1794.13 376.735 1795.62 374.546 1798.48 370.174 1799.86 368.014 1801.23 365.879 1803.88 361.665 1806.56 357.641 1809.17 353.729 1810.53 351.849 1813.17 348.094 1814.49 346.219 1817.17 342.461 1819.78 338.547 1822.46 334.53 1823.75 332.455 1826.3 328.266 1827.57 326.182 1830.01 322.041 1832.27 317.984 1834.42 314.121 1835.37 312.213 1837.41 308.621 1839.36 305.163 1842.48 300.305 1844.83 297.351 1847.19 294.393 1848.52 293.024 1851.09 290.14 1855.05 285.684 1857.68 282.51 1859.02 280.887 1861.73 277.592 1864.5 274.268 1865.98 272.676 1870.44 267.891 1872.11 266.455 1875.51 263.605 1878.99 260.684 1880.86 259.302 1886.61 254.828 1888.61 253.267 1890.65 251.67 1894.8 248.401 1896.89 246.751 1898.98 245.092 1903.13 241.833 1907.17 238.665 1909.13 237.144 1912.94 234.224 1914.79 232.805 1918.43 230.051 1922 227.368 1925.53 224.716 1929.05 222.079 1930.8 220.773 1934.25 218.198 1937.6 215.694 1942.42 212.235 1943.94 211.147 1946.81 209.039 1951.04 206.418 1953.69 204.775 1957.69 202.767 1961.62 201.037 1964.14 199.923 1968.95 197.668 1971.99 195.406 1974.92 193.219 1978.32 190.077 1981.07 188.399 1983.78 186.744 1989.06 184.589 1991.46 183.741 1995.34 182.365 1998.17 181.503 2002.73 180.216 2005.95 179.31 2009.26 178.484 2014.17 177.131 2018.86 175.839 2021.76 174.877 2025.95 173.765 2028.62 173.056 2033.92 172.158 2036.57 172.003 2040.53 171.77 2045.82 171.844 2048.47 171.844 2052.43 171.844 2057.72 171.844 2060.36 171.844 2064.33 171.844 2068.29 171.844 2072.26 171.844 2076.18 171.844 2079.94 171.844 2084.5 171.844 2088.56 171.844 2091.58 171.844 2095.98 171.844 2099.49 171.844 2104.79 171.231 2108.21 171.936 2112.12 172.742 2114.12 175.37 2117.2 178.453 2120.29 181.539 2122.75 183.858 2123.56 187.958 2124.2 191.196 2123.81 195.644 2123.81 199.321 2123.81 204.545 2123.81 206.905 2123.81 210.666 2123.81 215.906 2123.81 219.892 2123.81 222.608 2123.81 226.857 2123.86 231.425 2123.77 234.684 2123.68 238.123 2123.51 241.772 2122.34 247.485 2121.93 249.504 2120.73 253.613 2119.22 257.766 2118.46 259.869 2116.79 264.021 2115 268.047 2113.27 271.947 2111.47 275.694 2109.55 279.309 2108.6 281.11 2105.5 286.435 2103.17 289.926 2101.99 291.689 2099.52 295.154 2096.91 298.492 2095.62 300.144 2091.66 304.835 2089 307.765 2086.38 310.657 2085 312.043 2082.39 314.977 2078.37 319.499 2075.78 322.768 2074.46 324.412 2071.81 327.71 2069.22 331.015 2066.53 334.141 2063.92 337.178 2061.24 340.048 2058.44 342.759 2055.62 345.489 2052.61 348.13 2049.42 350.732 2046.18 353.371 2044.52 354.639 2041.21 357.095 2036.45 360.619 2033.41 362.691 2030.56 364.726 2027.79 366.699 2025.05 368.656 2021.15 371.982 2018.46 374.271 2015.89 376.763 2013.22 379.146 2009.29 382.652 2006.65 384.776 2004.01 386.663 2000.3 389.314 1996.8 391.478 1993.64 393.226 1989.92 395.287 1986.28 396.896 1982.81 398.858 1980.12 400.381 1976.66 403.122 1974 405.375 1969.62 409.081 1966.99 410.92 1964.31 412.378 1959.96 414.741 1957.21 416.054 1954.11 417.272 1949.2 419.203 1946.17 419.92 1942.97 420.889 1939.59 421.914 1934.32 423.683 1930.82 425.133 1927.32 426.585 1923.94 428.203 1920.62 429.68 1915.95 431.757 1913 432.878 1910.2 434.016 1906.14 435.672 1902.16 437.607 1899.53 439.095 1895.55 441.353 1892.99 443.03 1888.96 444.937 1885.1 446.763 1881.23 447.976 1876.72 449.879 1873.66 451.167 1870.8 452.622 1867.37 455.26 1864.63 457.363 1862.26 460.025 1857.68 463.162 1855.12 464.909 1852.39 466.178 1847.98 468.384 1844.46 470.149 1840.88 471.815 1837.5 473.672 1833.67 475.77 1830.95 478.302 1827.18 480.721 1824.29 482.571 1820.41 483.601 1817.18 484.799 1813.39 486.21 1810.23 489.087 1807.29 490.903 1803.91 492.987 1800.39 495.633 1797.75 497.906 1795.11 500.18 1791.64 502.927 1788.06 504.909 1784.59 506.826 1781.01 508.481 1778.36 509.803 1773.95 512.011 1771.19 513.363 1768.29 515.026 1763.84 517.583 1761.45 519.137 1757.89 521.72 1754.37 524.268 1751.19 526.864 1748.61 529.631 1745.45 533.013 1743.85 535.839 1742.12 538.444 1739.16 542.919 1736.86 545.477 1734.53 547.886 1731.2 551.331 1728.38 553.653 1725.95 556.509 1723.12 559.829 1721.25 562.741 1718.69 565.554 1716.51 567.946 1713.21 568.962 1710.21 570.468 1706.99 572.081 1703 574.99 1699.68 577.466 1697.84 578.842 1695.92 580.327 1691.86 583.529 1689.73 585.204 1687.57 586.926 1680.99 592.199 1678.79 593.955 1676.61 595.7 1674.47 597.441 1670.28 600.843 1668.22 602.47 1662.63 607.328 1660.89 608.833 1657.68 611.779 1656.19 613.238 1653.29 616.073 1650.53 618.956 1646.62 623.58 1645.27 625.171 1642.59 628.53 1639.85 632.062 1638.43 633.887 1633.99 639.642 1632.42 641.646 1630.82 643.696 1627.51 647.921 1625.81 650.106 1624.09 652.328 1622.34 654.587 1620.61 656.913 1615.28 664.078 1613.56 666.596 1611.81 669.121 1610.04 671.666 1608.28 674.245 1606.52 676.847 1604.75 679.461 1599.47 687.376 1597.71 690.019 1595.94 692.664 1594.17 695.31 1592.37 697.95 1590.57 700.598 1588.75 703.245 1586.88 705.881 1585 708.532 1581.12 713.822 1579.11 716.456 1575.05 721.763 1572.96 724.382 1570.92 727.031 1568.89 729.67 1566.87 732.295 1564.97 734.963 1561.22 740.204 1559.54 742.878 1557.92 745.532 1556.33 748.147 1553.38 753.373 1551.98 755.954 1550.59 758.5 1549.28 761.041 1546.59 765.953 1543.98 770.734 1542.64 773.05 1541.31 775.341 1538.68 779.869 1537.34 782.092 1533.38 788.719 1532.06 790.923 1530.72 793.114 1528.13 797.531 1526.85 799.729 1525.55 801.908 1523.18 806.344 1520.84 810.721 1518.75 815.148 1517.76 817.359 1515.81 821.749 1514.9 823.963 1513.11 828.375 1511.33 832.775 1509.58 837.188 1508.7 839.391 1506.94 843.797 1506.06 846 1504.29 850.406 1502.53 854.813 1501.64 857.014 1499.89 861.442 1499 863.671 1497.23 868.186 1496.36 870.486 1493.69 877.565 1492.83 880.018 1491.96 882.496 1490.22 887.477 1489.39 889.967 1488.59 892.436 1487.02 897.241 1485.61 901.803 1484.4 906.06 1483.27 910.052 1482.76 911.994 1481.84 915.831 1480.45 921.629 1479.61 925.688 1479.18 927.768 1478.29 932.012 1477.41 936.348 1476.98 938.537 1475.65 945.139 1475.23 947.335 1474.33 951.656 1473.46 955.842 1473.08 957.873 1471.69 963.5 1470.85 966.878 1469.92 969.984 1468.6 974.434 1467.28 978.92 1466.38 982.089 1465.52 985.443 1464.62 988.963 1463.74 992.665 1462.43 998.551 1461.98 1000.59 1461.09 1004.79 1460.07 1009.08 1459.55 1011.26 1457.76 1017.85 1457.05 1020.05 1455.63 1024.49 1454.81 1026.7 1453.29 1031.22 1452.52 1033.51 1450.37 1040.6 1449.75 1043.05 1449.12 1045.53 1448.01 1050.56 1447.45 1053.09 1446.9 1055.63 1445.85 1060.68 1444.52 1065.58 1443.21 1070.37 1442.38 1072.67 1441.61 1074.97 1440.09 1079.49 1439.19 1081.68 1437.17 1088.34 1435.85 1092.72 1435.34 1094.93 1434.33 1099.27 1433.83 1101.4 1432.95 1105.6 1431.59 1111.6 1430.73 1115.4 1430.29 1117.22 1429.39 1120.74 1428.53 1124.1 1426.76 1130.27 1425.86 1133.13 1424.57 1137.24 1423.24 1141.23 1421.88 1145.2 1420.94 1147.93 1419.97 1150.76 1417.4 1156.73 1416.7 1158.34 1415.17 1161.6 1413.64 1164.9 1412.13 1168.16 1409.48 1174.32 1408.4 1177.14 1407.39 1179.78 1405.72 1184.61 1404.25 1187.67 1402.41 1191.51 1399.79 1194.99 1397.55 1197.62 1395.27 1200.28 1392.43 1203.76 1390.26 1207.22 1387.93 1210.96 1385.86 1213.92 1383.12 1216.56 1380.56 1219.04 1376.51 1220.51 1372.46 1220.53 1368.93 1220.55 1365.16 1220.75 1361.02 1220.53 1357.62 1220.34 1353.38 1218.81 1350.45 1217 1346.49 1214.57 1344.33 1212.31 1341.03 1208.8 1338.66 1206.29 1335.74 1202.22 1334.59 1199.89 1332.84 1196.36 1331.67 1192.66 1329.81 1188.3 1328.55 1185.35 1326.19 1180.92 1324.98 1178.21 1323.32 1174.51 1322.37 1170.21 1321.99 1166.66 1321.6 1163.05 1320.95 1158.48 1320 1155.43 1319.07 1152.43 1317.78 1147.01 1317.63 1144.54 1317.38 1140.51 1317.47 1136.08 1317.47 1132.91 1317.47 1127.91 1317.47 1124.46 1317.47 1119.19 1317.47 1115.66 1317.47 1112.14 1317.47 1108.61 1317.47 1105.09 1317.47 1099.8 1317.47 1096.28 1317.47 1092.75 1317.47 1089.23 1317.47 1083.94 1317.47 1080.42 1317.47 1076.93 1317.47 1073.52 1317.47 1070.21 1317.47 1065.53 1317.47 1061.18 1317.47 1058.43 1317.47 1053.09 1317.47 1050.44 1317.47 1046.39 1317.46 1042.14 1317.47 1037.58 1317.48 1034.36 1317.45 1031.06 1317.72 1027.77 1318.24 1021.44 1319.02 1018.54 1319.67 1015.73 1320.62 1011.68 1321.52 1006.39 1321.76 1003.74 1322.13 999.78 1322.48 995.783 1323.45 991.847 1324.43 987.847 1325.4 985.237 1327.16 979.95 1328.04 977.306 1329.37 973.341 1330.69 969.375 1332.01 965.41 1332.89 962.766 1334.21 958.8 1335.53 954.834 1336.86 950.869 1337.74 948.225 1339.5 942.938 1340.8 938.985 1341.7 936.42 1343 932.729 1344.74 928.311 1346.11 925.404 1348.24 920.872 1349.59 918.207 1351.65 914.486 1353.4 911.328 1355.6 907.897 1357.13 905.484 1359.4 901.891 1362.08 897.512 1363.64 894.561 1366 890.097 1367.26 887.419 1369.02 883.894 1370.78 880.369 1372.55 876.845 1373.87 874.2 1376.08 869.776 1377.47 867.023 1379.16 862.891 1380.56 859.452 1381.69 855.659 1384.3 851.141 1385.57 848.941 1388.06 846.163 1390.24 843.362 1393.6 839.055 1394.98 836.201 1397.52 832.781 1399.54 830.048 1402.2 827.675 1405.5 823.088 1407.34 820.537 1408.63 817.785 1410.88 813.4 1412.62 810.015 1414.73 806.342 1417.05 803.747 1419.98 800.468 1422.13 798.08 1423.11 793.895 1424.13 789.492 1425.69 786.632 1428.07 782.896 1429.97 779.901 1431.15 777.257 1433.35 772.856 1434.68 770.213 1436.84 765.787 1438.25 763.116 1440.29 759.234 1442.23 756.002 1444.53 752.429 1446.16 749.885 1447.87 747.276 1451.42 742.013 1453.22 739.36 1455.05 736.682 1457.08 734.081 1460.24 730.047 1462.69 727.471 1465.08 724.737 1467.51 721.952 1471.01 717.523 1473.07 714.324 1474.11 712.718 1476 709.407 1477.84 706.114 1480.5 701.329 1482.23 698.308 1484.03 695.465 1486.63 691.334 1489.32 687.378 1491.07 684.737 1492.8 682.137 1495.29 678.408 1497.39 674.891 1499.24 671.794 1501.21 668.019 1502.97 664.463 1504.66 661.04 1506.55 657.315 1506.92 653.467 1507.3 649.5 1508.29 645.26 1506.89 641.597 1505.62 638.265 1501.15 637.852 1498.03 636.703 1493.76 635.125 1490.15 634.585 1486.29 634.506 1481.88 634.416 1478.02 634.5 1475.13 634.5 1470.22 634.5 1466.53 634.484 1462.56 634.547 1460.49 634.58 1456.22 634.633 1449.66 635.235 1447.45 635.437 1443.02 636.065 1440.8 636.468 1436.27 637.29 1433.96 637.764 1426.89 639.641 1424.44 640.292 1419.46 641.804 1416.94 642.637 1414.4 643.478 1411.84 644.305 1406.85 646.338 1401.88 648.36 1399.5 649.531 1394.83 651.917 1392.52 653.096 1388.02 655.543 1385.79 656.74 1383.57 657.928 1376.96 661.305 1374.75 662.324 1370.36 664.346 1368.15 665.271 1363.73 667.087 1361.54 667.991 1354.92 670.631 1352.71 671.519 1348.22 673.32 1345.92 674.245 1343.59 675.196 1338.75 677.169 1333.62 679.294 1330.94 680.42 1328.18 681.579 1325.35 682.765 1319.58 685.264 1316.65 686.533 1313.71 687.825 1310.78 689.144 1304.97 691.76 1302.14 693.098 1299.33 694.425 1296.55 695.742 1291.03 698.393 1288.28 699.713 1285.51 701.036 1282.74 702.379 1277.08 705 1274.2 706.333 1271.28 707.647 1268.33 708.946 1265.37 710.25 1259.42 712.783 1256.45 714.001 1253.51 715.209 1247.71 717.497 1244.86 718.564 1242.07 719.612 1236.6 721.552 1233.93 722.442 1231.32 723.314 1228.76 724.205 1221.27 726.297 1218.87 726.965 1214.2 728.112 1211.92 728.635 1207.52 729.649 1205.38 730.074 1199.23 731.438 1195.35 732.299 1191.66 733.187 1188.13 733.923 1184.79 734.619 1180.09 735.378 1177.16 735.592 1173 735.896 1167.66 735.844 1165.02 735.844 1161.14 735.844 1157.46 735.844 1153.05 735.844 1149.2 735.844 1144.73 736.053 1141.22 735.752 1136.78 735.373 1133.22 734.129 1130.14 732.313 1126.77 730.332 1124.09 727.935 1119.96 725.222 1117.65 723.707 1114.22 720.53 1112.18 717.449 1109.87 713.949 1107.54 711.393 1104.67 708.085 1102.12 705.147 1100.91 701.625 1099.03 697.792 1097.25 694.177 1097.54 690.842 1095.91 686.864 1094.43 683.273 1092.83 679.288 1092.76 675.913 1092.65 671.514 1092.75 667.988 1092.75 663.582 1092.75 660.057 1092.75 655.651 1092.75 652.217 1092.75 647.813 1092.72 644.299 1094.32 640.437 1095.63 637.275 1097.95 633.907 1100.49 631.184 1103.6 627.852 1106.09 625.525 1108.99 623.038 1112.17 620.321 1114.56 618.565 1118.51 615.994 1121.3 614.179 1125.87 611.543 1129.13 609.845 1132.47 608.108 1134.18 607.256 1137.7 605.795 1142.93 603.624 1146.51 602.567 1150.03 601.453 1153.56 600.34 1158.86 598.561 1162.36 597.118 1164.1 596.397 1167.48 594.868 1170.68 593.314 1176.3 590.575 1179.68 588.834 1182.6 587.373 1186.16 585.591 1189.68 583.815 1194.09 581.625 1196.73 580.315 1200.19 578.502 1204.67 577.589 1208.16 576.878 1212.61 576.271 1215.24 575.345 1218.78 574.101 1223.22 573.382 1226.45 572.581 1231.14 571.416 1234.45 568.861 1238.25 568.498 1242.54 568.088 1246.15 568.497 1248.98 568.155 1253.26 567.638 1256.8 566.445 1260.65 565.554 1264.57 564.645 1268.58 564.246 1272.68 563.889 1275.55 563.64 1280.12 563.06 1283.31 562.446 1288.13 561.521 1291.15 560.711 1296.45 559.964 1299.65 559.513 1304.27 558.933 1307.78 557.72 1310.44 556.797 1314.82 555.421 1318.51 555.235 1322.6 555.028 1326.07 555.188 1329.69 555.188 1334.36 555.188 1338.52 555.289 1341.49 554.936 1345.79 554.425 1349.33 553.226 1353.18 552.336 1357.11 551.426 1361.08 551.094 1364.9 550.67 1369.62 550.146 1372.68 549.133 1376.24 547.929 1380.72 546.414 1384.45 546.627 1388.7 546.375 1391.89 546.187 1395.99 544.298 1399.43 543.22 1402.89 542.137 1406.48 542.049 1410.88 541.968 1414.41 541.904 1418.88 541.416 1422.34 540.048 1425.94 538.623 1429.3 536.443 1433.07 535.078 1437.09 533.625 1440.63 533.519 1444.1 533.045 1449.06 532.367 1451.94 529.866 1455.83 528.909 1459.68 527.96 1463.76 528.797 1467.72 528.75 1471.6 528.704 1471.68 524.541 1475.04 524.344 1478.96 524.115 1483.02 524.468 1486.46 522.47 1490 520.417 1493.7 519.943 1496.25 517.406 1499.11 514.561 1501.93 512.248 1504.64 509.014 1507.21 505.955 1508.35 505.151 1511.25 502.313 1514.02 499.608 1514.6 496.216 1515.75 492.524 1516.9 488.83 1515.75 484.641 1515.75 480.652L1515.75 477.127 1515.75 473.023 1517.3 469.915" fill="#000000" fill-rule="nonzero" fill-opacity="1" transform="matrix(1.00035 0 0 1 939 281)"/><path d="M1912.31 1321.88C1912.06 1317.76 1911.36 1313.12 1910.72 1309.81 1910.36 1307.93 1909.48 1303.74 1908.96 1301.46 1907.23 1293.96 1906.5 1291.28 1905.76 1288.52 1905 1285.68 1903.33 1279.83 1902.41 1276.84 1901.48 1273.8 1900.53 1270.73 1898.36 1264.59 1897.26 1261.5 1896.08 1258.41 1894.86 1255.32 1893.62 1252.2 1892.31 1249.07 1890.96 1245.93 1889.58 1242.75 1888.17 1239.53 1885.14 1233.02 1883.59 1229.68 1881.97 1226.31 1880.3 1222.88 1878.58 1219.39 1876.8 1215.84 1874.94 1212.24 1873.03 1208.54 1871.06 1204.77 1866.78 1197.03 1864.56 1193.01 1862.22 1188.93 1859.83 1184.78 1857.41 1180.55 1854.94 1176.29 1852.45 1171.97 1849.95 1167.62 1847.42 1163.26 1842.55 1154.44 1840.12 1150.05 1837.78 1145.64 1835.47 1141.26 1833.19 1136.91 1830.97 1132.59 1828.8 1128.32 1826.66 1124.1 1824.57 1119.94 1820.52 1111.84 1818.55 1107.92 1816.63 1104.08 1814.77 1100.3 1812.93 1096.59 1811.14 1092.94 1809.41 1089.32 1807.7 1085.74 1806.01 1082.21 1802.89 1075.13 1801.34 1071.61 1799.88 1068.09 1798.46 1064.57 1797.06 1061.08 1795.72 1057.6 1794.43 1054.13 1793.16 1050.71 1791.92 1047.31 1789.67 1040.61 1788.57 1037.33 1787.54 1034.09 1786.55 1030.87 1785.56 1027.7 1784.62 1024.55 1783.7 1021.42 1782.78 1018.31 1781.89 1015.21 1780.12 1009.03 1779.24 1005.95 1778.36 1002.87 1777.48 999.798 1776.6 996.74 1775.72 993.7 1774.84 990.684 1773.96 987.692 1773.09 984.727 1771.31 978.922 1770.44 976.077 1769.55 973.277 1768.69 970.508 1767.83 967.772 1766.99 965.064 1766.18 962.372 1765.39 959.704 1764.58 957.059 1763.23 951.75 1762.57 949.113 1761.98 946.466 1761.43 943.819 1760.88 941.178 1760.38 938.533 1759.9 935.888 1759.43 933.245 1758.98 930.601 1758.09 925.313 1757.65 922.67 1757.21 920.031 1756.77 917.401 1756.33 914.784 1755.89 912.185 1755.45 909.609 1755.01 907.058 1754.58 904.537 1753.69 899.61 1753.25 897.206 1752.81 894.844 1752.37 892.518 1751.93 890.221 1751.49 887.951 1751.04 885.703 1750.17 881.255 1749.27 876.847 1748.41 872.443 1747.55 868.081 1747.1 865.931 1746.45 861.674 1745.51 855.561 1745.35 853.588 1745.13 849.737 1744.91 845.911 1744.89 841.991 1744.88 839.966 1744.86 833.474 1744.86 828.772 1744.83 826.342 1744.79 823.877 1744.66 818.891 1744.5 816.402 1744.02 809.074 1743.65 806.717 1743 802.096 1742.68 799.825 1741.99 795.352 1741.72 793.131 1740.91 786.527 1740.7 782.13 1740.63 779.953 1740.48 775.66 1740.47 771.47 1740.47 767.422 1740.47 763.539 1740.47 759.796 1740.47 756.16 1740.47 752.594 1740.47 747.301 1740.47 743.795 1740.47 740.342 1740.47 736.977 1740.47 732.172 1740.47 727.744 1740.47 725.012 1740.47 721.245 1740.47 715.827 1740.47 712.978 1740.47 708.525 1740.47 705 1740.15 700.575 1740.56 696.279 1740.92 692.479 1742.66 689.4 1746.29 686.935 1749.23 684.942 1753.69 682.969 1756.33 681.647 1759.86 679.885 1763.38 678.122 1766.91 676.359 1771.31 674.156 1773.86 672.597 1777.48 671.324 1781.78 669.813 1785.25 669.774 1789.44 669.75 1793.78 669.726 1797.75 669.75 1801.27 669.75 1804.96 669.75 1808.87 669.002 1812.5 670.254 1816.22 671.538 1817.98 675.128 1820.22 679.444 1821.6 682.085 1823.56 685.704 1826.32 689.138 1828.5 691.857 1831.09 694.268 1833.51 697.956 1835.82 701.496 1837.43 705.725 1838.73 709.198 1839.63 711.603 1840.83 715.248 1842.69 719.605 1844.36 723.5 1846.22 727.031 1847.98 730.556 1849.3 733.2 1851.63 737.55 1852.74 740.25 1854.51 744.576 1854.69 748.22 1855.4 751.706 1856.31 756.182 1858.15 759.632 1859.88 763.162 1861.56 766.591 1863.01 770.384 1863.96 773.849 1864.99 777.663 1866.72 781.428 1868.02 785.383 1869.25 789.151 1871.51 792.206 1872.77 795.927 1874.02 799.629 1875.47 802.617 1876.69 806.855 1877.65 810.183 1879.14 814.309 1880.22 817.43 1881.65 821.589 1880.97 825.966 1882.73 829.262 1884.5 832.596 1887.41 835.55 1888.71 838.718 1890.51 843.121 1891.02 846.735 1892.48 850.406 1893.95 854.078 1893.86 857.996 1894.85 861.863 1895.81 865.662 1898.21 869.116 1899.83 872.438 1901.46 875.802 1902.76 879.124 1903.55 883.013 1904.39 887.152 1907.78 889.823 1907.91 893.167 1908.06 897.298 1907.58 901.573 1909.46 904.855 1911.45 908.336 1912.31 911.213 1912.31 915.178 1912.32 919.144 1911.62 923.178 1912.36 927.075 1913.15 931.262 1915.91 933.528 1916.56 937.809 1917.07 941.146 1916.46 945.61 1916.97 949.106 1917.62 953.577 1919.57 956.952 1920.59 961.444 1921.38 964.921 1921.79 969.397 1922.68 972.019 1923.88 975.577 1924.95 979.981 1925.64 983.316 1926.53 987.574 1928.76 990.237 1931.26 994.282 1933.12 997.287 1935.63 1000.48 1937.18 1003.54 1939.06 1007.27 1938.94 1011.38 1940.62 1015.09 1942.25 1018.66 1942.85 1022.41 1943.89 1026.66 1944.77 1030.25 1946.29 1032.76 1947.19 1037.23 1947.9 1040.72 1948.51 1045.17 1949.77 1048.6 1951.39 1053.02 1952.04 1056.47 1953.52 1060.38 1954.7 1063.49 1956.2 1067.4 1956.37 1071.45 1956.53 1075.12 1957.5 1079.36 1958.91 1082.13 1960.9 1086.04 1960.78 1090.11 1960.78 1094.07 1960.78 1098.03 1961.54 1101.38 1963.63 1104.41 1965.77 1107.51 1965.19 1111.93 1965.19 1115.76 1965.19 1119.63 1965.19 1123.59 1965.19 1127.12 1965.19 1131.15 1965.19 1135.26 1965.19 1139.11 1965.19 1142.98 1965.19 1146.95 1965.19 1150.91 1965.19 1154.88 1965.19 1158.84 1965.19 1162.88 1965.19 1166.35 1965.19 1170.3 1965.19 1174.27 1965.19 1178.28 1964.78 1182.33 1965.35 1186.05 1965.99 1190.29 1968.87 1193.07 1969.55 1196.74 1970.28 1200.73 1970.65 1204.29 1972.13 1208.08 1973.72 1212.19 1973.6 1216.18 1974.25 1219.46 1975.07 1223.54 1977.03 1226.41 1978.17 1230.43 1979.32 1234.44 1980.45 1238.31 1982.81 1241.83 1984.82 1244.82 1988.13 1247.05 1990.05 1250.05 1992.37 1253.68 1993.51 1257.58 1996.03 1260.19 1998.63 1262.87 2001.29 1266.68 2004.84 1268.27 2008.44 1269.88 2011.72 1266.73 2014.1 1263.18 2016.1 1260.19 2017.47 1257.47 2020.19 1254.02 2022.31 1251.32 2025.62 1247.04 2026.39 1244.33 2027.37 1240.87 2028.02 1236.34 2029.57 1232.87 2031.16 1229.29 2033.29 1225.92 2034.43 1222.29 2035.79 1217.98 2035.68 1214.36 2035.69 1209.96 2035.7 1206.43 2035.69 1202.02 2035.69 1198.5 2035.69 1194.09 2035.69 1190.62 2035.69 1187.42 2035.69 1183.08 2035.69 1178.73 2035.69 1175.38 2035.69 1171.33 2035.82 1167.86 2035.53 1164.24 2035.15 1159.56 2033.97 1156.48 2032.84 1152.44 2031.65 1148.22 2031.38 1144.59 2031.3 1140.76 2031.22 1136.81 2031.28 1132.85 2031.28 1128.88 2031.28 1126.24 2031.35 1120.95 2031.19 1116.98 2031.08 1114.34 2030.35 1109.04 2029.41 1105.09 2028.78 1102.44 2027.53 1097.17 2027.25 1094.51 2026.84 1090.56 2026.88 1086.58 2026.87 1082.61 2026.87 1078.6 2026.87 1074.43 2026.87 1069.98 2026.87 1066.82 2026.87 1063.56 2026.87 1060.26 2026.87 1053.83 2026.87 1050.82 2026.87 1047.92 2026.87 1043.61 2026.87 1039.14 2026.87 1035.97 2026.87 1032.62 2026.87 1029.09 2026.87 1025.39 2026.87 1019.51 2026.87 1015.39 2026.87 1013.28 2026.87 1008.98 2026.88 1004.62 2026.87 1000.22 2026.87 995.818 2026.9 993.628 2026.78 989.295 2026.67 985.047 2026.65 982.953 2025.9 976.96 2025.42 973.119 2024.61 969.385 2024.02 965.618 2023.11 959.841 2022.94 957.828 2022.72 953.701 2022.49 949.458 2022.5 947.297 2022.47 942.932 2022.44 936.329 2022.47 934.131 2022.47 929.766 2022.47 927.607 2022.47 923.361 2022.47 917.235 2022.47 913.345 2022.47 911.445 2022.47 907.688 2022.47 903.931 2022.47 898.141 2022.47 894.087 2022.47 891.994 2022.47 887.676 2022.47 883.182 2022.47 880.868 2022.47 873.666 2022.47 871.186 2022.47 868.681 2022.47 863.625 2022.47 861.093 2022.47 856.064 2022.47 851.141 2022.47 848.738 2022.47 844.029 2022.47 839.391 2022.47 837.076 2022.47 832.411 2022.46 827.641 2022.47 825.196 2022.48 820.192 2022.48 817.641 2022.63 812.466 2022.7 809.848 2022.73 807.21 2023.44 799.295 2023.68 796.658 2024.01 794.044 2024.67 788.902 2024.99 786.392 2025.43 783.947 2026.14 776.969 2026.57 772.727 2026.64 770.696 2026.87 766.779 2027.1 762.95 2027.56 757.135 2028.13 753.093 2028.43 751.01 2029.15 746.764 2029.98 742.433 2030.4 740.243 2031.73 733.643 2032.16 731.443 2033.01 727.081 2033.46 724.931 2034.11 720.674 2035.05 714.561 2035.33 710.665 2035.58 706.921 2035.69 705.092 2035.77 701.479 2036.42 696.188 2036.85 692.65 2037.57 689.116 2038.54 685.613 2039.51 682.064 2041.46 676.778 2042.99 673.275 2044.54 669.727 2045.41 667.98 2047.15 664.463 2049.76 659.165 2051.53 655.661 2053.31 652.217 2055.06 648.843 2055.87 647.163 2058.6 642.527 2061.16 638.181 2062.94 635.539 2064.77 633.12 2068.17 628.614 2070.02 626.697 2072.7 623.945 2076.18 620.362 2078.66 617.661 2081.26 615.617 2085.02 612.663 2088.72 611.032 2092.09 609.314 2095.4 607.62 2099.67 608.063 2103.91 608.063 2106.96 608.063 2111.68 608.03 2115.73 608.063 2118.68 608.086 2123.84 608.702 2126.44 609.617 2129.77 610.794 2134.6 611.606 2137.91 613.732 2141.06 615.754 2142.85 619.745 2144.08 622.368 2146.47 627.463 2147.19 629.898 2148.49 633.666 2149.38 636.263 2151.13 641.55 2152.45 645.516 2153.33 648.16 2155.14 653.434 2155.96 656.111 2157.21 660.195 2157.95 663.055 2158.53 667.642 2158.93 670.872 2159.01 674.252 2159.29 677.701 2159.72 682.975 2160.26 686.5 2160.98 689.972 2161.7 693.398 2163.45 699.864 2164.35 702.868 2165.22 705.774 2166.17 708.619 2167.87 714.547 2168.78 717.705 2169.65 721.009 2170.36 724.435 2171.08 727.907 2171.81 733.196 2172.03 736.725 2172.25 740.247 2172.27 743.775 2172.28 749.063 2172.29 752.594 2172.28 756.16 2172.28 759.796 2172.28 763.539 2172.28 767.422 2172.28 771.464 2172.28 775.612 2172.28 779.795 2172.28 781.878 2172.28 787.985 2172.28 791.868 2172.28 795.61 2172.28 799.247 2172.28 802.813 2172.28 808.107 2172.28 811.631 2172.28 815.156 2172.28 818.682 2172.28 823.969 2172.28 827.488 2172.28 830.972 2172.28 834.385 2172.28 837.693 2172.28 842.381 2172.28 846.77 2172.28 849.637 2172.28 852.539 2172.28 858.714 2172.28 862.021 2172.28 865.435 2172.28 868.919 2172.28 874.2 2172.28 877.705 2172.28 881.159 2172.28 884.523 2172.28 889.328 2172.28 893.816 2172.28 896.764 2172.28 899.8 2172.28 904.75 2172.28 908.44 2172.28 912.411 2172.28 916.594 2172.29 918.743 2172.28 925.313 2172.28 929.719 2172.29 931.923 2172.19 936.328 2172.14 938.532 2172.02 942.949 2171.31 949.546 2171.07 951.749 2170.41 956.11 2170.08 958.268 2169.43 962.514 2168.58 968.638 2168.41 970.603 2168.07 974.427 2167.94 978.187 2167.89 981.945 2167.83 987.734 2167.87 991.777 2167.87 993.842 2167.87 998.016 2167.88 1002.19 2167.87 1004.26 2167.87 1010.26 2167.9 1014.07 2167.78 1017.75 2167.67 1021.35 2167.19 1026.66 2166.62 1030.18 2166.05 1033.72 2165.27 1037.22 2164.72 1040.76 2163.9 1046.03 2163.68 1049.57 2163.56 1053.09 2163.44 1056.62 2163.47 1061.91 2163.47 1065.44 2163.47 1069 2163.47 1072.64 2163.47 1076.38 2163.47 1080.27 2163.49 1084.31 2163.42 1088.5 2163.39 1090.64 2163.33 1094.98 2162.73 1101.56 2162.53 1103.77 2161.92 1108.15 2161.59 1110.33 2160.95 1114.62 2160.21 1118.8 2159.6 1124.82 2159.4 1126.73 2159.23 1130.44 2158.95 1133.96 2158.43 1140.49 2157.84 1143.49 2157.19 1146.35 2156.25 1150.46 2155.26 1154.42 2154.91 1158.38 2154.57 1162.2 2154.74 1166.92 2154.64 1170.05 2154.51 1173.81 2153.29 1178.2 2152.12 1181.92 2150.85 1185.98 2150.43 1189.5 2150.3 1193.26 2150.21 1195.86 2150.32 1201.15 2150.16 1205.11 2150.05 1207.76 2149.32 1213.05 2148.38 1217.01 2147.75 1219.66 2146.5 1224.93 2146.22 1227.58 2145.82 1231.44 2145.85 1235.14 2145.84 1239.54 2145.84 1243.4 2145.84 1247.85 2145.84 1251.28 2145.84 1255.69 2145.84 1259.3 2145.84 1263.86 2145.84 1267.45 2145.86 1271.51 2145.84 1274.96 2145.82 1279.46 2145.03 1282.92 2143.64 1286.72 2142.08 1291 2141.58 1293.69 2141.46 1297.45 2141.32 1301.7 2141.44 1305.24 2141.44 1308.87 2141.44 1313.41 2141.44 1317.38 2141.44 1321.88 2141.44 1325.35 2141.44 1329.95 2141.44 1333.44 2141.44 1337.23 2141.32 1340.43 2141.44 1345.66 2141.52 1349.04 2142.97 1353.09 2144.29 1356.04 2146 1359.87 2145.7 1363.42 2147.1 1367.69 2148.24 1371.18 2151 1374.45 2152.73 1377.35 2155 1381.13 2154.04 1385.63 2155.91 1388.84 2158.02 1392.49 2162.08 1394.32 2163.22 1398.1 2164.35 1401.9 2165.17 1405.19 2167.76 1407.47 2170.57 1409.93 2172.14 1413.34 2174.2 1416.17 2176.71 1419.6 2179.77 1421.9 2182.81 1424.93 2185.5 1427.63 2188.21 1430.23 2189.79 1433.79 2191.34 1437.25 2193.53 1440.28 2195.63 1443.72 2197.48 1446.73 2200.17 1450.65 2202.24 1453.55 2204.6 1456.84 2206.18 1460.02 2208.41 1463.39 2210.65 1466.79 2211.56 1470.2 2212.17 1473.47 2213 1477.89 2214.4 1481.37 2217.22 1485.42 2218.86 1487.76 2221.69 1491.42 2223.39 1494.65 2225.22 1498.09 2227.1 1501.51 2228.3 1504.8 2229.86 1509.04 2230.6 1512.74 2232.09 1516.52 2233.49 1520.04 2233.97 1524.56 2233.97 1528.09 2233.97 1532.05 2234.04 1536.06 2235.84 1539.59 2237.56 1542.96 2238.33 1546.59 2238.37 1550.91 2238.41 1554.32 2238.37 1558.3 2238.37 1561.6 2238.37 1565.98 2238.71 1570.15 2238.35 1574.12 2237.99 1578.22 2236.64 1581.18 2234.84 1584.12 2232.44 1588.06 2229.65 1591.45 2227.8 1594.25 2225.27 1598.08 2222.16 1599.92 2220.38 1603 2218.38 1606.46 2214.79 1608.28 2210.96 1608.28 2207.09 1608.28 2203.12 1608.28 2199.6 1608.28 2195.63 1608.28 2191.48 1608.28 2187.61 1608.28 2183.74 1608.28 2179.44 1609.04 2175.81 1607.02 2172.76 1605.33 2170.78 1601.69 2166.99 1599.84 2163.23 1598 2160.21 1596.25 2156.93 1594.18 2153.95 1592.31 2150.22 1590.35 2147.19 1587.57 2144.41 1585.03 2142.22 1582.41 2140.12 1578.97 2138.27 1575.96 2135.75 1571.92 2133.51 1569.51 2130.57 1566.37 2128.96 1562.67 2126.97 1558.93 2125.43 1556.06 2123.58 1552.32 2121.61 1548.8 2119.64 1545.27 2118.04 1541.99 2116.25 1538.66 2114.47 1535.33 2112.57 1531.81 2111.33 1528.23 2110.11 1524.71 2111.33 1520.09 2110.22 1516.64 2109.09 1513.15 2106.73 1509.18 2106.08 1506.17 2105.17 1501.97 2102.93 1499.05 2101.67 1495.32 2100.42 1491.62 2098.41 1487.92 2097.63 1483.84 2096.83 1479.69 2096.31 1476.3 2094.52 1473.01 2092.7 1469.66 2093.55 1465.47 2092.95 1461.55 2092.32 1457.45 2089.3 1455.07 2088.58 1450.98 2087.9 1447.07 2085.84 1443.88 2084.53 1439.96 2083.27 1436.18 2083.23 1432.15 2081.62 1429.39 2079.66 1426 2080.35 1421.65 2078.5 1417.93 2077.04 1415.02 2075.11 1411.32 2073.14 1407.8 2071.17 1404.27 2069.21 1401.25 2067.27 1397.52 2065.7 1394.51 2063.38 1392.38 2059.43 1392.38 2055.52 1392.37 2051.55 1392.37 2047.58 1392.38 2043.62 1392.38 2040.46 1394.04 2038.22 1396.67 2035.72 1399.6 2032.65 1402.22 2031.3 1405.83 2029.84 1409.74 2031.46 1413.34 2031.26 1417.28 2031.07 1421.1 2028.86 1424.64 2027.61 1428.36 2026.42 1431.89 2026.87 1436.34 2026.87 1439.96 2026.87 1443.65 2026.87 1448.13 2026.87 1451.19 2026.87 1455.71 2026.87 1459.89 2026.87 1462.97 2026.87 1467.28 2027.12 1470.85 2026.5 1474.33 2025.7 1478.82 2023.66 1482.18 2022.84 1486.66 2022.24 1490 2022.51 1494.23 2022.47 1498.86 2022.44 1501.81 2022.29 1505.24 2020.91 1509.58 2019.78 1513.16 2018.53 1517.53 2017.95 1521.04 2017.21 1525.47 2016.2 1528.12 2014.53 1531.61 2012.41 1536.06 2010.98 1538.65 2008.81 1543.07 2007.52 1545.7 2005.9 1549.2 2005.08 1553.62 2004.46 1556.89 2002.79 1561.38 2000.44 1564.95 1998.57 1567.79 1997.14 1571.07 1994.71 1574.1 1991.87 1577.65 1988.95 1579.99 1987.33 1583.61 1985.78 1587.05 1984.63 1591.29 1982.44 1593.81 1980.11 1596.49 1975.94 1597.94 1972.68 1600.77 1969.74 1603.32 1966.24 1603.69 1963.08 1606.08 1959.43 1608.82 1957.39 1612.03 1953.29 1612.67 1949.37 1613.27 1945.36 1612.69 1941.39 1612.69 1937.43 1612.69 1933.46 1612.69 1929.5 1612.69 1926.04 1612.69 1921.81 1613.08 1918.85 1612.31 1914.88 1611.28 1911.58 1607.55 1909.44 1605.41 1906.38 1602.34 1903.59 1599.56 1900.9 1596.87 1897.77 1593.74 1895.57 1591.54 1892.48 1588.45 1889.4 1585.37 1886.56 1582.87 1885.92 1579.2 1885.25 1575.29 1885.87 1571.22 1885.87 1567.21 1885.87 1563.29 1885.87 1558.93 1885.87 1555.5 1885.87 1551.1 1885.87 1547.94 1885.87 1543.79 1885.87 1540.06 1885.87 1536.25 1885.87 1531.77 1885.87 1528.08 1885.77 1523.82 1885.92 1520.83 1886.12 1517.12 1887.04 1512.71 1888.17 1509.14 1889.32 1505.52 1891.12 1501.12 1892.48 1498.22 1894.62 1493.69 1895.87 1491.02 1897.77 1487.8 1899.83 1484.31 1902.89 1481.63 1905.61 1478.39 1908.18 1475.33 1908.72 1471.75 1911.06 1468.54 1913.37 1465.39 1914.84 1461.95 1917.16 1458.56 1919.4 1455.29 1920.84 1451.72 1922.68 1448.33 1924.69 1444.63 1925.45 1441.72 1925.53 1437.76 1925.61 1433.79 1928.27 1430.67 1929.56 1426.74 1930.9 1422.68 1929.48 1418.67 1930.67 1415.14 1931.92 1411.42 1934.12 1407.88 1934.3 1404.82 1934.57 1400.13 1934.34 1396.34 1934.34 1392.38 1934.34 1388.85 1934.34 1384.3 1934.34 1380.87 1934.34 1376.95 1934.34 1372.64 1934.34 1368.77 1934.34 1365.06 1934.35 1360.8 1934.34 1356.97 1934.33 1352.97 1930.31 1352.04 1929.94 1348.27 1929.57 1344.46 1929.43 1341.55 1927.08 1339.5 1924.85 1337.55 1925.85 1332.57 1923.66 1330.69 1921.4 1328.76 1921.2 1325.31 1921.12 1321.5 1921.05 1317.51 1916.99 1316.52 1916.72 1312.81 1916.43 1308.83 1916.08 1306.05 1913.87 1304 1910.98 1301.32 1912.31 1296.69 1909.78 1295.28L1907.91 1291.77" fill="#000000" fill-rule="nonzero" fill-opacity="1" transform="matrix(1.00035 0 0 1 939 281)"/><path d="M656.531 1520.16C649.164 1520.16 644.323 1520.16 640.926 1520.16 638.426 1520.16 633.177 1520.16 629.119 1520.16 626.252 1520.16 623.173 1520.16 618.007 1520.16 614.168 1520.16 610.082 1520.16 607.968 1520.16 603.644 1520.16 597.047 1520.16 594.844 1520.16 590.437 1520.16 588.234 1520.16 583.828 1520.16 577.219 1520.16 575.016 1520.16 570.609 1520.16 568.406 1520.16 564 1520.16 559.594 1520.16 555.187 1520.16 550.787 1520.15 548.598 1520.18 544.263 1520.23 540.015 1520.37 537.938 1520.53 531.916 1521.01 528.056 1521.7 524.16 1522.45 520.078 1523.23 517.945 1523.74 510.84 1525 508.232 1525.47 505.504 1525.89 502.671 1526.32 499.743 1526.77 493.63 1527.65 490.463 1528.09 483.955 1528.98 480.627 1529.41 477.267 1529.86 473.88 1530.31 470.474 1530.77 467.062 1531.26 463.647 1531.76 460.239 1532.27 456.858 1532.87 450.161 1534.05 446.885 1534.77 443.645 1535.51 440.432 1536.23 437.258 1537.01 434.107 1537.78 427.866 1539.31 424.781 1540.11 418.594 1541.45 415.515 1542.12 412.427 1542.71 409.341 1543.28 406.258 1543.85 403.17 1544.38 400.087 1544.94 393.916 1546.07 387.746 1547.31 384.668 1548.01 381.595 1548.7 378.556 1549.45 375.553 1550.18 372.603 1550.91 366.922 1552.31 364.203 1552.9 359.122 1554 354.526 1554.71 350.426 1555.14 346.794 1555.51 343.497 1555.39 338.271 1556.66 334.992 1557.46 332.241 1558.93 327.825 1561.13 325.18 1562.45 320.792 1564.7 318.084 1565.98 314.255 1567.8 309.85 1569.54 307.492 1570.34 303.04 1571.85 298.728 1572.55 295.736 1573.4 291.47 1574.61 288.343 1576.3 284.802 1579.2 281.82 1581.64 279.206 1584.54 277.153 1587.67 275.247 1590.57 273.17 1595.41 270.544 1597.5 267.46 1599.96 264.421 1601.85 264.375 1606.01 264.341 1609.05 264.375 1613.76 264.375 1617.53 264.375 1621.5 264.375 1625.02 264.375 1628.99 264.375 1632.96 264.028 1637.41 266.889 1640.01 269.38 1642.27 274.069 1643.97 276.712 1645.29 280.237 1647.06 283.671 1649.06 287.446 1650.42 291.46 1651.88 295.026 1652.18 298.791 1652.3 304.029 1652.46 306.675 1652.34 310.641 1652.34 314.606 1652.34 318.572 1652.34 322.584 1652.34 325.34 1652.34 331.203 1652.34 334.37 1652.34 337.677 1652.34 341.091 1652.34 344.575 1652.34 349.856 1652.34 353.381 1652.34 356.906 1652.34 360.431 1652.34 365.719 1652.34 369.244 1652.34 372.769 1652.34 376.294 1652.34 379.819 1652.34 385.106 1652.34 388.632 1652.37 392.156 1652.25 395.683 1652.14 400.98 1651.68 404.488 1651.09 407.984 1650.49 411.397 1649.7 414.693 1648.81 420.885 1647.15 423.703 1646.15 426.478 1645.45 431.779 1644.12 435.779 1643.77 438.422 1643.53 442.388 1643.17 447.682 1642.28 450.366 1641.66 454.537 1640.68 458.977 1639.79 462.145 1639.5 465.406 1639.21 468.713 1639.15 475.14 1639.13 478.143 1639.11 481.004 1639.13 485.108 1639.13 490.415 1639.12 493.067 1639.25 497.025 1638.97 502.33 1638.59 504.956 1637.87 508.922 1636.92 512.887 1635.97 516.843 1635.14 520.772 1634.88 524.527 1634.63 529.096 1634.72 532.163 1634.72 536.17 1634.72 540.588 1634.72 544.355 1634.72 547.087 1634.72 553.08 1634.72 556.34 1634.72 559.777 1634.72 563.39 1634.72 569.141 1634.72 571.145 1634.72 575.267 1634.72 579.513 1634.72 581.672 1634.72 586.037 1634.72 590.437 1634.72 594.838 1634.72 599.203 1634.72 601.361 1634.72 605.607 1634.72 611.734 1634.72 615.612 1634.72 617.484 1634.72 621.097 1634.72 626.187 1634.72 630.879 1634.72 633.788 1634.72 637.819 1634.72 642.578 1634.72 645.684 1634.72 649.981 1634.72 654.236 1634.72 658.281 1634.2 662.195 1634.72 665.88 1635.22 669.14 1638.09 669.73 1641.96 670.3 1645.69 666.836 1647.86 663.199 1649.19 659.78 1650.45 655.813 1652.39 652.314 1653.67 648.569 1655.03 645.954 1655.88 640.663 1657.63 637.98 1658.52 633.819 1659.87 629.359 1661.16 626.2 1662.07 622.887 1662.93 619.472 1663.8 615.99 1664.69 610.707 1666.01 607.161 1666.88 603.566 1667.77 599.881 1668.66 597.992 1669.09 592.112 1670.43 588.005 1671.29 585.919 1671.68 581.742 1672.48 577.601 1673.23 571.586 1673.84 569.672 1674.03 565.969 1674.26 562.443 1674.33 555.923 1674.45 552.925 1674.38 550.105 1674.38 546.206 1674.38 541.616 1674.23 537.562 1674.47 534.54 1674.64 530.142 1675.63 526.547 1676.58 522.951 1677.53 518.535 1678.38 514.38 1678.89 509.651 1679.48 506.846 1680 503.805 1680.7 500.606 1681.44 494.23 1683.17 491.226 1684.07 488.32 1684.94 485.471 1685.88 479.547 1687.59 476.393 1688.51 473.103 1689.35 469.818 1690.4 466.534 1691.44 461.839 1693.36 458.942 1694.88 454.725 1697.09 452.155 1698.82 448.115 1700.72 444.211 1702.55 441.513 1703.43 436.219 1705.22 433.578 1706.11 429.609 1707.42 426.965 1708.3 421.679 1710.07 419.037 1710.9 415.227 1712.27 410.493 1713.97 407.372 1715.32 404.541 1716.68 400.06 1718.82 396.563 1720.64 393.919 1721.96 389.494 1724.17 386.743 1725.57 382.609 1727.25 379.152 1728.66 375.336 1729.98 372.763 1731.15 368.754 1732.97 364.845 1735.31 362.194 1736.83 359.557 1738.35 354.284 1741.03 351.619 1742.07 347.684 1743.61 343.681 1744.86 339.741 1746.2 335.908 1747.5 333.474 1748.36 329.082 1750.16 325.215 1751.73 320.765 1753.09 317.342 1753.69 313.565 1754.35 310.172 1756.5 307.021 1758.53 304.104 1760.42 300.572 1762.81 297.028 1764.99 293.632 1767.07 289.227 1766.53 286.518 1768.78 283.877 1770.97 281 1773.33 278.845 1776.09 276.535 1779.04 277.593 1783.76 277.593 1786.8 277.593 1791.14 277.593 1795.48 277.593 1799.28 277.593 1803.25 277.593 1807.3 277.593 1810.97 277.593 1815.28 276.669 1819.06 277.845 1822.87 279.026 1826.68 283.584 1827.77 286.847 1829.57 289.819 1831.21 292.243 1835.29 295.66 1836.87 298.906 1838.37 303.181 1839.49 306.305 1840.56 310.551 1842.02 314.26 1841.81 318.178 1841.81 322.537 1841.81 326.062 1841.81 330.468 1841.81 333.993 1841.81 337.518 1841.81 341.925 1841.81 345.45 1841.81 349.874 1841.99 353.54 1841.65 357.664 1841.28 361.135 1840.33 364.726 1839.12 369.434 1837.53 372.482 1835.96 375.524 1834.92 379.608 1833.53 383.142 1833.3 386.757 1832.89 391.433 1832.35 394.584 1831.47 398.557 1829.9 402.844 1828.2 406.41 1826.82 408.947 1825.95 414.178 1824.16 416.809 1823.24 420.797 1822.08 423.427 1821.31 428.723 1820.27 432.694 1819.89 435.335 1819.64 440.651 1819.16 444.59 1818.21 447.254 1817.56 451.201 1816.25 455.165 1814.93 459.132 1813.62 461.775 1812.73 467.062 1810.97 469.706 1810.09 473.672 1808.77 476.315 1807.88 481.603 1806.12 484.247 1805.24 488.212 1803.92 490.856 1803.04 496.146 1801.3 500.017 1799.95 502.506 1799.09 507.035 1797.24 511.033 1795.64 513.744 1794.55 518.207 1793.67 521.952 1793.11 526.217 1792.48 529.774 1791.51 533.365 1790.24 537.951 1788.61 540.959 1787.14 543.963 1785.85 548.21 1784.04 551.816 1782.76 554.353 1781.89 559.584 1780.1 562.21 1779.16 566.203 1778.01 570.143 1776.89 574.13 1776.22 578.053 1775.83 581.81 1775.46 586.433 1774.91 589.397 1773.8 593.157 1772.39 596.513 1770.22 600.131 1768.83 604.443 1767.17 608.122 1767.2 612.468 1766.17 615.162 1765.53 618.574 1763.79 623.038 1762.87 626.375 1762.19 630.419 1760.93 633.612 1759.35 637.411 1757.46 640.946 1755.57 644.634 1753.92 648.036 1752.4 651.312 1750.7 654.768 1749.17 658.373 1747.58 662.055 1745.8 665.784 1743.9 668.671 1742.43 672.421 1740.87 675.965 1740.42 680.052 1739.9 683.063 1738.18 687.375 1736.06 690.02 1734.76 693.474 1732.94 697.95 1732.03 701.436 1731.32 705.936 1730.82 709.406 1729.36 712.096 1728.23 716.357 1725.76 719.729 1724.42 723.634 1722.86 727.771 1722.12 730.667 1720.97 735.118 1719.2 738.478 1718.4 742.059 1716.56 745.427 1714.84 749.267 1714.69 753.374 1713.06 756.787 1711.7 760.007 1710.05 764.155 1709.63 768.202 1709.21 771.276 1707.33 773.749 1706.09 778.161 1703.89 780.909 1702.49 785.047 1700.81 788.5 1699.42 792.289 1698.16 794.893 1697.29 800.165 1695.51 804.061 1694.24 806.532 1693.32 811.119 1691.62 815.072 1689.81 817.794 1688.48 822.179 1686.32 825.467 1685.12 829.109 1682.45 831.672 1680.57 835.079 1678.96 839.32 1678.78 843.128 1678.61 846.804 1676.73 850.406 1675.11 853.572 1673.68 857.64 1672.64 861.001 1671.52 865.314 1670.1 868.992 1670.2 873.318 1668.99 875.981 1668.25 879 1666.27 882.9 1663.85 886.3 1661.74 890.22 1661.47 894.468 1660.42 898.021 1659.54 901.036 1657.48 905.484 1656.84 909.068 1656.33 913.095 1656.92 917.381 1655.77 920.988 1654.81 923.485 1653.25 927.956 1652.6 931.452 1652.09 935.887 1652.34 939.412 1652.34 943.818 1652.34 947.343 1652.34 951.75 1652.34 955.275 1652.34 958.8 1652.34 963.206 1652.34 966.731 1652.34 971.131 1652.34 975.291 1652.34 979.257 1652.34 983.035 1652.34 986.494 1652.34 990.683 1652.34 994.056 1652.34 998.456 1652.34 1001.98 1652.34 1006.38 1652.34 1010.54 1652.34 1014.53 1652.34 1018.58 1652.34 1022.34 1652.34 1026.66 1652.34 1030.18 1652.34 1033.71 1652.34 1038.11 1652.34 1041.64 1652.34 1046.04 1652.34 1049.57 1652.34 1053.98 1652.34 1057.59 1652.34 1060.52 1652.34 1064.92 1652.34 1068.52 1652.34 1072.11 1652.34 1077.52 1652.34 1080.37 1652.34 1084.82 1652.34 1088.44 1652.34 1093.48 1652.34 1096.95 1652.34 1100.57 1652.36 1105.23 1652.34 1108.4 1652.33 1111.55 1652.33 1116.25 1651.61 1119.07 1651.18 1123.77 1650.08 1127.16 1649.49 1132.39 1648.58 1135.92 1648.29 1139.41 1648.05 1142.82 1647.81 1146.16 1647.74 1150.82 1646.96 1155.24 1646.23 1158.05 1645.3 1160.98 1644.78 1167.12 1643.69 1170.46 1643.66 1173.87 1643.42 1177.36 1643.18 1182.64 1642.59 1186.16 1641.98 1189.69 1641.36 1193.19 1640.54 1198.5 1639.86 1202.01 1639.41 1205.55 1639.25 1209.07 1639.01 1212.6 1638.77 1217.89 1638.18 1221.41 1637.57 1223.18 1637.27 1226.69 1636.52 1230.22 1635.97 1235.5 1635.15 1239.04 1634.95 1242.56 1634.72 1246.09 1634.49 1251.38 1634.04 1254.89 1633.47 1258.39 1632.9 1261.76 1632.01 1268.27 1631.05 1271.25 1630.6 1274.1 1630.57 1277.98 1630.08 1282.59 1629.5 1286.62 1628 1289.64 1626.78 1294.04 1625.01 1297.61 1623.7 1300.05 1623.07 1305.58 1621.66 1308.51 1622.09 1312.97 1621.5 1317.02 1620.97 1319.74 1618.81 1321.88 1616.12 1324.5 1612.8 1323.61 1608.95 1325.41 1606.01 1327.81 1602.07 1330.77 1598.78 1332.45 1595.79 1334.31 1592.46 1336.19 1588.99 1337.58 1585.37 1339.23 1581.06 1338.98 1577.39 1340.23 1573.77 1341.52 1570.06 1343.68 1566.5 1343.86 1563.45 1344.14 1558.73 1343.91 1554.67 1343.91 1551 1343.91 1546.69 1344.08 1543.27 1343.89 1539.31 1343.7 1535.5 1342.07 1531.69 1339.06 1528.53 1336.91 1526.27 1334.14 1522.68 1330.69 1520.89 1327.41 1519.19 1324.1 1517.69 1320.46 1515.31 1317.55 1513.41 1313.97 1511.09 1310.86 1509.23 1307.4 1507.17 1303.25 1507.11 1298.96 1505.96 1296.27 1505.24 1292.86 1503.42 1288.37 1502.78 1284.64 1502.25 1280.36 1502.53 1276.82 1502.53 1273.2 1502.53 1268.65 1502.53 1264.69 1502.53 1260.19 1502.53 1256.71 1502.53 1253.51 1502.53 1249.17 1502.53 1244.83 1502.53 1241.63 1502.53 1237.27 1502.53 1233.75 1502.53 1229.34 1502.53 1225.82 1502.53 1222.29 1502.4 1217.89 1502.55 1214.36 1502.68 1209.99 1503.88 1206.43 1505.06 1202.06 1506.52 1198.44 1506.38 1194.83 1507.67 1191.26 1508.95 1187.88 1511.18 1183.87 1511.34 1180.1 1511.5 1176.72 1512.64 1173.15 1514.2 1169.32 1515.87 1166.01 1515.7 1161.6 1517.62 1158 1519.2 1154.3 1519.65 1150.77 1520.89 1147.06 1522.19 1143.47 1524.12 1140.29 1524.67 1135.91 1525.44 1132.65 1527.24 1128.09 1528.43 1124.76 1529.31 1120.63 1528.45 1116.91 1529.34 1112.96 1530.29 1109.68 1532.92 1105.97 1533.28 1101.68 1533.7 1098.55 1533.72 1094.86 1535.58 1091.38 1537.34 1087.57 1537.54 1083.43 1537.79 1080.03 1537.99 1075.97 1539.86 1072.85 1540.94 1068.69 1542.37 1064.55 1542.18 1060.58 1542.19 1056.62 1542.19 1052.87 1543.55 1049.76 1545.04 1045.99 1546.84 1042.5 1546.5 1038.1 1546.6 1034.27 1546.69 1029.59 1547.3 1026.79 1547.85 1023.74 1548.44 1020.58 1549.31 1014.17 1550.27 1011.18 1550.71 1008.3 1550.77 1004.2 1551.23 998.879 1551.83 996.279 1552.58 992.446 1553.53 987.741 1554.7 984.613 1555.26 980.851 1555.39 976.427 1555.53 972.899 1555.35 968.493 1555.41 964.876 1555.45 959.82 1556.11 957.542 1556.66 953.847 1557.55 950.008 1558.73 946.022 1559.28 942.075 1559.82 938.09 1559.8 934.125 1559.81 930.179 1559.82 926.352 1559.81 921.64 1559.81 918.514 1559.81 914.757 1559.81 910.331 1559.81 906.806 1559.81 902.4 1559.81 898.966 1559.81 894.563 1559.81 890.062 1559.81 886.537 1559.81 882.572 1559.81 878.262 1561.32 874.732 1559.72 871.709 1558.35 869.614 1554.67 868.078 1550.89 866.791 1547.72 867.991 1543.15 869.625 1539.29 870.695 1536.77 873.768 1532.42 876.168 1529.85 877.871 1528.03 881.963 1524.53 884.263 1522.8 887.827 1520.11 890.345 1518.49 894.815 1514.87 896.916 1513.17 899.697 1510.36 904.015 1507.67 906.221 1506.3 909.965 1504.78 913.862 1503.42 917.805 1502.04 921.787 1500.77 924.431 1499.89 929.718 1498.12 932.361 1497.2 936.511 1495.92 939.466 1495.01 944.399 1493.69 948.095 1492.84 952.06 1491.92 954.135 1491.51 958.399 1490.63 960.573 1490.19 967.171 1488.87 971.578 1487.99 973.781 1487.55 978.187 1486.67 980.39 1486.23 987 1484.91 989.203 1484.46 993.649 1483.58 995.905 1483.14 1000.53 1482.25 1002.93 1481.82 1010.49 1480.46 1013.18 1480.05 1015.95 1479.62 1018.77 1479.19 1024.54 1478.38 1027.47 1478.01 1030.41 1477.65 1033.34 1477.28 1039.14 1476.83 1044.78 1476.39 1047.53 1476.32 1050.24 1476.21 1055.53 1475.98 1058.11 1475.9 1060.64 1475.72 1067.99 1475.22 1070.34 1474.87 1074.92 1474.22 1079.33 1473.59 1081.45 1473.12 1087.61 1472.42 1091.49 1471.98 1095.28 1471.8 1097.16 1471.69 1100.91 1471.46 1106.71 1470.99 1110.75 1470.44 1114.95 1469.86 1117.07 1469.46 1121.41 1468.84 1123.6 1468.52 1130.2 1467.8 1134.61 1467.49 1136.81 1467.34 1141.22 1467.07 1143.42 1466.8 1150.05 1465.98 1152.26 1465.42 1156.64 1464.15 1161.07 1462.87 1163.24 1462.03 1167.66 1460.6 1172.05 1459.17 1176.46 1457.94 1178.67 1457.4 1183.07 1456.32 1185.28 1455.86 1189.69 1454.95 1194.09 1454.05 1198.49 1453.19 1202.86 1452.3 1205.02 1451.86 1209.27 1451 1215.39 1449.66 1217.35 1449.22 1221.15 1448.36 1224.75 1447.45 1228.2 1446.59 1233.02 1445.27 1237.42 1443.95 1240.09 1443.15 1243.64 1442.36 1248.41 1440.96 1252.32 1439.8 1255.05 1437.17 1257.7 1434.52 1260.63 1431.59 1263.24 1429.04 1264.59 1425.33 1266.11 1421.17 1267.15 1417.96 1269.44 1414.5 1271.38 1411.58 1273.2 1407.88 1273.39 1404.06 1273.58 1400.12 1273.41 1395.9 1273.41 1391.93 1273.41 1387.97 1273.41 1384.44 1273.41 1380.76 1273.41 1376.28 1274.09 1373.16 1273.36 1368.74 1272.73 1364.92 1270.19 1361.35 1268.63 1358.01 1267.12 1354.78 1263.17 1353.24 1259.45 1351.98 1255.67 1350.71 1252.11 1348.31 1249.17 1346.11 1246.23 1343.91 1243.3 1342.11 1239.91 1340.38 1235.54 1338.15 1232.97 1336.62 1228.46 1335.63 1225.08 1334.88 1220.57 1335.5 1217.21 1334.84 1213.1 1334.03 1210.02 1331.87 1205.55 1331.06 1202.07 1330.44 1197.62 1330.69 1194 1330.69 1191.07 1330.69 1186.66 1330.69 1182.89 1330.69 1178.73 1330.69 1174.17 1330.69 1170.93 1330.69 1167.56 1330.69 1164.11 1330.69 1158.84 1330.69 1155.32 1330.69 1151.84 1330.69 1148.43 1330.69 1141.95 1330.69 1138.96 1330.69 1134.88 1330.69 1131.4 1330.69 1127.16 1330.69 1122.86 1330.69 1119.91 1330.69 1116.54 1330.69 1112.14 1330.69 1108.61 1330.69 1104.21 1330.69 1100.68 1330.69 1096.27 1330.69 1092.66 1330.67 1087.61 1330.69 1084.15 1330.7 1080.47 1330.54 1075.86 1331.42 1072.69 1332.03 1069.03 1333.77 1065.43 1334.56 1061.95 1335.32 1057.43 1335.65 1053.97 1337.01 1050.37 1338.44 1046.92 1340.38 1043.4 1342.14 1039.87 1343.91 1036.45 1345.9 1032.82 1347.06 1028.51 1348.42 1024.81 1348.23 1020.49 1349.57 1017.77 1350.41 1013.42 1352.69 1010.81 1354.04 1007.5 1355.76 1003.79 1358.89 1000.73 1360.27 996.767 1362.06 993.047 1361.54 988.782 1363.11 985.373 1364.36 982.209 1367.02 979.025 1369.02 975.912 1370.98 972.624 1372.09 969.146 1373.43 964.614 1375.17 961.584 1376.58 957.548 1378.27 953.172 1380.11 950.743 1380.88 947.135 1382.24 942.574 1383.96 939.502 1385.12 936.269 1387.09 932.317 1389.49 929.033 1392.46 926.035 1394.14 922.714 1396 919.087 1397.55 915.777 1399.43 912.115 1401.5 909.522 1403.73 905.484 1405.59 901.98 1407.21 899.196 1410.39 896.231 1412.49 892.993 1414.77 889.112 1415.59 886.537 1417.94 883.271 1420.92 880.515 1423.22 876.843 1425.42 873.172 1427.62 870.794 1429.35 867.591 1432.47 864.848 1435.15 862.051 1438.01 859.218 1440.84 856.575 1443.49 854.382 1446.82 850.406 1448.92 847.55 1450.43 843.934 1452.1 840.706 1454.94 838.352 1457.01 834.214 1457.79 830.507 1458.84 826.614 1459.94 823.823 1463.72 821.166 1465.36 817.725 1467.49 813.437 1467.05 809.68 1468.84 806.112 1470.53 802.666 1470.82 798.853 1471.94 794.986 1473.07 791.715 1475.63 787.984 1476.83 785.016 1477.78 780.686 1480.05 777.309 1480.45 773.323 1480.93 770.198 1482.89 766.247 1484.37 762.498 1485.77 758.839 1485.44 755.231 1487.44 751.785 1489.35 748.595 1491.32 744.656 1492.98 741.206 1494.44 738.559 1496.97 734.868 1498.13 731.234 1499.26 728.763 1500.36 725.477 1502.28 722.163 1504.21 718.224 1503.41 715.114 1505.38 711.909 1507.42 707.294 1506.94 703.446 1506.94 699.618 1506.94 695.2 1506.15 691.781 1507.67 688.551 1509.11 685.5 1511.34 681.414 1511.34 677.311 1511.34 674.216 1512.25 671.303 1514.2 667.922 1516.45 663.469 1515.75 659.686 1515.75L655.556 1515.75" fill="#000000" fill-rule="nonzero" fill-opacity="1" transform="matrix(1.00035 0 0 1 939 281)"/></g></g></g></g></svg>