<svg id="visual" viewBox="0 0 900 600" width="900" height="600" xmlns="http://www.w3.org/2000/svg" xmlns:xlink="http://www.w3.org/1999/xlink" version="1.1"><path d="M0 103L13.7 117C27.3 131 54.7 159 82 183C109.3 207 136.7 227 163.8 239C191 251 218 255 245.2 259C272.3 263 299.7 267 327 268C354.3 269 381.7 267 409 262C436.3 257 463.7 249 491 228C518.3 207 545.7 173 573 173C600.3 173 627.7 207 654.8 199C682 191 709 141 736.2 131C763.3 121 790.7 151 818 175C845.3 199 872.7 217 886.3 226L900 235L900 0L886.3 0C872.7 0 845.3 0 818 0C790.7 0 763.3 0 736.2 0C709 0 682 0 654.8 0C627.7 0 600.3 0 573 0C545.7 0 518.3 0 491 0C463.7 0 436.3 0 409 0C381.7 0 354.3 0 327 0C299.7 0 272.3 0 245.2 0C218 0 191 0 163.8 0C136.7 0 109.3 0 82 0C54.7 0 27.3 0 13.7 0L0 0Z" fill="#212529"></path><path d="M0 367L13.7 349C27.3 331 54.7 295 82 304C109.3 313 136.7 367 163.8 390C191 413 218 405 245.2 397C272.3 389 299.7 381 327 381C354.3 381 381.7 389 409 385C436.3 381 463.7 365 491 355C518.3 345 545.7 341 573 338C600.3 335 627.7 333 654.8 327C682 321 709 311 736.2 303C763.3 295 790.7 289 818 297C845.3 305 872.7 327 886.3 338L900 349L900 233L886.3 224C872.7 215 845.3 197 818 173C790.7 149 763.3 119 736.2 129C709 139 682 189 654.8 197C627.7 205 600.3 171 573 171C545.7 171 518.3 205 491 226C463.7 247 436.3 255 409 260C381.7 265 354.3 267 327 266C299.7 265 272.3 261 245.2 257C218 253 191 249 163.8 237C136.7 225 109.3 205 82 181C54.7 157 27.3 129 13.7 115L0 101Z" fill="#2e3551"></path><path d="M0 433L13.7 425C27.3 417 54.7 401 82 408C109.3 415 136.7 445 163.8 457C191 469 218 463 245.2 460C272.3 457 299.7 457 327 460C354.3 463 381.7 469 409 465C436.3 461 463.7 447 491 442C518.3 437 545.7 441 573 439C600.3 437 627.7 429 654.8 428C682 427 709 433 736.2 436C763.3 439 790.7 439 818 441C845.3 443 872.7 447 886.3 449L900 451L900 347L886.3 336C872.7 325 845.3 303 818 295C790.7 287 763.3 293 736.2 301C709 309 682 319 654.8 325C627.7 331 600.3 333 573 336C545.7 339 518.3 343 491 353C463.7 363 436.3 379 409 383C381.7 387 354.3 379 327 379C299.7 379 272.3 387 245.2 395C218 403 191 411 163.8 388C136.7 365 109.3 311 82 302C54.7 293 27.3 329 13.7 347L0 365Z" fill="#5c3c6f"></path><path d="M0 499L13.7 499C27.3 499 54.7 499 82 503C109.3 507 136.7 515 163.8 521C191 527 218 531 245.2 534C272.3 537 299.7 539 327 543C354.3 547 381.7 553 409 546C436.3 539 463.7 519 491 511C518.3 503 545.7 507 573 511C600.3 515 627.7 519 654.8 528C682 537 709 551 736.2 555C763.3 559 790.7 553 818 552C845.3 551 872.7 555 886.3 557L900 559L900 449L886.3 447C872.7 445 845.3 441 818 439C790.7 437 763.3 437 736.2 434C709 431 682 425 654.8 426C627.7 427 600.3 435 573 437C545.7 439 518.3 435 491 440C463.7 445 436.3 459 409 463C381.7 467 354.3 461 327 458C299.7 455 272.3 455 245.2 458C218 461 191 467 163.8 455C136.7 443 109.3 413 82 406C54.7 399 27.3 415 13.7 423L0 431Z" fill="#9b3774"></path><path d="M0 601L13.7 601C27.3 601 54.7 601 82 601C109.3 601 136.7 601 163.8 601C191 601 218 601 245.2 601C272.3 601 299.7 601 327 601C354.3 601 381.7 601 409 601C436.3 601 463.7 601 491 601C518.3 601 545.7 601 573 601C600.3 601 627.7 601 654.8 601C682 601 709 601 736.2 601C763.3 601 790.7 601 818 601C845.3 601 872.7 601 886.3 601L900 601L900 557L886.3 555C872.7 553 845.3 549 818 550C790.7 551 763.3 557 736.2 553C709 549 682 535 654.8 526C627.7 517 600.3 513 573 509C545.7 505 518.3 501 491 509C463.7 517 436.3 537 409 544C381.7 551 354.3 545 327 541C299.7 537 272.3 535 245.2 532C218 529 191 525 163.8 519C136.7 513 109.3 505 82 501C54.7 497 27.3 497 13.7 497L0 497Z" fill="#d2305c"></path></svg>