<svg id="visual" viewBox="0 0 900 600" width="900" height="600" xmlns="http://www.w3.org/2000/svg" xmlns:xlink="http://www.w3.org/1999/xlink" version="1.1"><path d="M0 151L13.7 147C27.3 143 54.7 135 82 120C109.3 105 136.7 83 163.8 72C191 61 218 61 245.2 71C272.3 81 299.7 101 327 111C354.3 121 381.7 121 409 115C436.3 109 463.7 97 491 100C518.3 103 545.7 121 573 130C600.3 139 627.7 139 654.8 140C682 141 709 143 736.2 131C763.3 119 790.7 93 818 94C845.3 95 872.7 123 886.3 137L900 151L900 0L886.3 0C872.7 0 845.3 0 818 0C790.7 0 763.3 0 736.2 0C709 0 682 0 654.8 0C627.7 0 600.3 0 573 0C545.7 0 518.3 0 491 0C463.7 0 436.3 0 409 0C381.7 0 354.3 0 327 0C299.7 0 272.3 0 245.2 0C218 0 191 0 163.8 0C136.7 0 109.3 0 82 0C54.7 0 27.3 0 13.7 0L0 0Z" fill="#1cff00"></path><path d="M0 193L13.7 189C27.3 185 54.7 177 82 174C109.3 171 136.7 173 163.8 163C191 153 218 131 245.2 143C272.3 155 299.7 201 327 213C354.3 225 381.7 203 409 194C436.3 185 463.7 189 491 201C518.3 213 545.7 233 573 241C600.3 249 627.7 245 654.8 246C682 247 709 253 736.2 234C763.3 215 790.7 171 818 167C845.3 163 872.7 199 886.3 217L900 235L900 149L886.3 135C872.7 121 845.3 93 818 92C790.7 91 763.3 117 736.2 129C709 141 682 139 654.8 138C627.7 137 600.3 137 573 128C545.7 119 518.3 101 491 98C463.7 95 436.3 107 409 113C381.7 119 354.3 119 327 109C299.7 99 272.3 79 245.2 69C218 59 191 59 163.8 70C136.7 81 109.3 103 82 118C54.7 133 27.3 141 13.7 145L0 149Z" fill="#00faad"></path><path d="M0 295L13.7 299C27.3 303 54.7 311 82 337C109.3 363 136.7 407 163.8 388C191 369 218 287 245.2 290C272.3 293 299.7 381 327 419C354.3 457 381.7 445 409 412C436.3 379 463.7 325 491 318C518.3 311 545.7 351 573 362C600.3 373 627.7 355 654.8 363C682 371 709 405 736.2 415C763.3 425 790.7 411 818 404C845.3 397 872.7 397 886.3 397L900 397L900 233L886.3 215C872.7 197 845.3 161 818 165C790.7 169 763.3 213 736.2 232C709 251 682 245 654.8 244C627.7 243 600.3 247 573 239C545.7 231 518.3 211 491 199C463.7 187 436.3 183 409 192C381.7 201 354.3 223 327 211C299.7 199 272.3 153 245.2 141C218 129 191 151 163.8 161C136.7 171 109.3 169 82 172C54.7 175 27.3 183 13.7 187L0 191Z" fill="#00e9e8"></path><path d="M0 355L13.7 364C27.3 373 54.7 391 82 414C109.3 437 136.7 465 163.8 446C191 427 218 361 245.2 363C272.3 365 299.7 435 327 464C354.3 493 381.7 481 409 455C436.3 429 463.7 389 491 392C518.3 395 545.7 441 573 449C600.3 457 627.7 427 654.8 426C682 425 709 453 736.2 466C763.3 479 790.7 477 818 476C845.3 475 872.7 475 886.3 475L900 475L900 395L886.3 395C872.7 395 845.3 395 818 402C790.7 409 763.3 423 736.2 413C709 403 682 369 654.8 361C627.7 353 600.3 371 573 360C545.7 349 518.3 309 491 316C463.7 323 436.3 377 409 410C381.7 443 354.3 455 327 417C299.7 379 272.3 291 245.2 288C218 285 191 367 163.8 386C136.7 405 109.3 361 82 335C54.7 309 27.3 301 13.7 297L0 293Z" fill="#00d3fb"></path><path d="M0 601L13.7 601C27.3 601 54.7 601 82 601C109.3 601 136.7 601 163.8 601C191 601 218 601 245.2 601C272.3 601 299.7 601 327 601C354.3 601 381.7 601 409 601C436.3 601 463.7 601 491 601C518.3 601 545.7 601 573 601C600.3 601 627.7 601 654.8 601C682 601 709 601 736.2 601C763.3 601 790.7 601 818 601C845.3 601 872.7 601 886.3 601L900 601L900 473L886.3 473C872.7 473 845.3 473 818 474C790.7 475 763.3 477 736.2 464C709 451 682 423 654.8 424C627.7 425 600.3 455 573 447C545.7 439 518.3 393 491 390C463.7 387 436.3 427 409 453C381.7 479 354.3 491 327 462C299.7 433 272.3 363 245.2 361C218 359 191 425 163.8 444C136.7 463 109.3 435 82 412C54.7 389 27.3 371 13.7 362L0 353Z" fill="#00b9ff"></path></svg>