<svg id="visual" viewBox="0 0 900 600" width="900" height="600" xmlns="http://www.w3.org/2000/svg" xmlns:xlink="http://www.w3.org/1999/xlink" version="1.1"><path d="M0 55L13.7 53C27.3 51 54.7 47 82 54C109.3 61 136.7 79 163.8 82C191 85 218 73 245.2 74C272.3 75 299.7 89 327 93C354.3 97 381.7 91 409 88C436.3 85 463.7 85 491 79C518.3 73 545.7 61 573 53C600.3 45 627.7 41 654.8 41C682 41 709 45 736.2 53C763.3 61 790.7 73 818 74C845.3 75 872.7 65 886.3 60L900 55L900 0L886.3 0C872.7 0 845.3 0 818 0C790.7 0 763.3 0 736.2 0C709 0 682 0 654.8 0C627.7 0 600.3 0 573 0C545.7 0 518.3 0 491 0C463.7 0 436.3 0 409 0C381.7 0 354.3 0 327 0C299.7 0 272.3 0 245.2 0C218 0 191 0 163.8 0C136.7 0 109.3 0 82 0C54.7 0 27.3 0 13.7 0L0 0Z" fill="#00b9ff"></path><path d="M0 109L13.7 119C27.3 129 54.7 149 82 154C109.3 159 136.7 149 163.8 150C191 151 218 163 245.2 173C272.3 183 299.7 191 327 188C354.3 185 381.7 171 409 172C436.3 173 463.7 189 491 190C518.3 191 545.7 177 573 167C600.3 157 627.7 151 654.8 140C682 129 709 113 736.2 112C763.3 111 790.7 125 818 132C845.3 139 872.7 139 886.3 139L900 139L900 53L886.3 58C872.7 63 845.3 73 818 72C790.7 71 763.3 59 736.2 51C709 43 682 39 654.8 39C627.7 39 600.3 43 573 51C545.7 59 518.3 71 491 77C463.7 83 436.3 83 409 86C381.7 89 354.3 95 327 91C299.7 87 272.3 73 245.2 72C218 71 191 83 163.8 80C136.7 77 109.3 59 82 52C54.7 45 27.3 49 13.7 51L0 53Z" fill="#6ba0ff"></path><path d="M0 277L13.7 271C27.3 265 54.7 253 82 255C109.3 257 136.7 273 163.8 283C191 293 218 297 245.2 301C272.3 305 299.7 309 327 299C354.3 289 381.7 265 409 270C436.3 275 463.7 309 491 320C518.3 331 545.7 319 573 303C600.3 287 627.7 267 654.8 242C682 217 709 187 736.2 186C763.3 185 790.7 213 818 231C845.3 249 872.7 257 886.3 261L900 265L900 137L886.3 137C872.7 137 845.3 137 818 130C790.7 123 763.3 109 736.2 110C709 111 682 127 654.8 138C627.7 149 600.3 155 573 165C545.7 175 518.3 189 491 188C463.7 187 436.3 171 409 170C381.7 169 354.3 183 327 186C299.7 189 272.3 181 245.2 171C218 161 191 149 163.8 148C136.7 147 109.3 157 82 152C54.7 147 27.3 127 13.7 117L0 107Z" fill="#b97cef"></path><path d="M0 409L13.7 407C27.3 405 54.7 401 82 395C109.3 389 136.7 381 163.8 397C191 413 218 453 245.2 465C272.3 477 299.7 461 327 436C354.3 411 381.7 377 409 374C436.3 371 463.7 399 491 420C518.3 441 545.7 455 573 439C600.3 423 627.7 377 654.8 345C682 313 709 295 736.2 322C763.3 349 790.7 421 818 451C845.3 481 872.7 469 886.3 463L900 457L900 263L886.3 259C872.7 255 845.3 247 818 229C790.7 211 763.3 183 736.2 184C709 185 682 215 654.8 240C627.7 265 600.3 285 573 301C545.7 317 518.3 329 491 318C463.7 307 436.3 273 409 268C381.7 263 354.3 287 327 297C299.7 307 272.3 303 245.2 299C218 295 191 291 163.8 281C136.7 271 109.3 255 82 253C54.7 251 27.3 263 13.7 269L0 275Z" fill="#ee49b6"></path><path d="M0 601L13.7 601C27.3 601 54.7 601 82 601C109.3 601 136.7 601 163.8 601C191 601 218 601 245.2 601C272.3 601 299.7 601 327 601C354.3 601 381.7 601 409 601C436.3 601 463.7 601 491 601C518.3 601 545.7 601 573 601C600.3 601 627.7 601 654.8 601C682 601 709 601 736.2 601C763.3 601 790.7 601 818 601C845.3 601 872.7 601 886.3 601L900 601L900 455L886.3 461C872.7 467 845.3 479 818 449C790.7 419 763.3 347 736.2 320C709 293 682 311 654.8 343C627.7 375 600.3 421 573 437C545.7 453 518.3 439 491 418C463.7 397 436.3 369 409 372C381.7 375 354.3 409 327 434C299.7 459 272.3 475 245.2 463C218 451 191 411 163.8 395C136.7 379 109.3 387 82 393C54.7 399 27.3 403 13.7 405L0 407Z" fill="#ff0066"></path></svg>